G04 EAGLE Gerber RS-274X export*
G75*
%MOMM*%
%FSLAX34Y34*%
%LPD*%
%INSilkscreen Top*%
%IPPOS*%
%AMOC8*
5,1,8,0,0,1.08239X$1,22.5*%
G01*
G04 Define Apertures*
%ADD10C,0.152400*%
%ADD11C,0.050800*%
G36*
X242463Y301856D02*
X242927Y301891D01*
X243375Y301947D01*
X243808Y302027D01*
X244225Y302129D01*
X244628Y302254D01*
X245015Y302402D01*
X245387Y302572D01*
X245741Y302764D01*
X246074Y302976D01*
X246384Y303209D01*
X246674Y303462D01*
X246942Y303736D01*
X247188Y304030D01*
X247413Y304344D01*
X247616Y304678D01*
X247797Y305031D01*
X247954Y305401D01*
X248086Y305786D01*
X248195Y306188D01*
X248279Y306606D01*
X248339Y307041D01*
X248375Y307492D01*
X248387Y307959D01*
X248375Y308422D01*
X248338Y308869D01*
X248278Y309301D01*
X248192Y309717D01*
X248083Y310117D01*
X247949Y310502D01*
X247790Y310872D01*
X247608Y311225D01*
X247402Y311561D01*
X247176Y311877D01*
X246928Y312173D01*
X246660Y312448D01*
X246370Y312704D01*
X246059Y312939D01*
X245727Y313154D01*
X245374Y313349D01*
X245003Y313523D01*
X244617Y313673D01*
X244216Y313800D01*
X243800Y313905D01*
X243369Y313985D01*
X242922Y314043D01*
X242461Y314078D01*
X241985Y314090D01*
X241507Y314078D01*
X241045Y314044D01*
X240599Y313987D01*
X240169Y313907D01*
X239756Y313804D01*
X239359Y313678D01*
X238978Y313530D01*
X238613Y313358D01*
X238266Y313165D01*
X237941Y312952D01*
X237637Y312718D01*
X237355Y312464D01*
X237093Y312189D01*
X236853Y311894D01*
X236634Y311579D01*
X236436Y311243D01*
X236261Y310889D01*
X236109Y310520D01*
X235980Y310135D01*
X235875Y309734D01*
X235793Y309318D01*
X235734Y308886D01*
X235699Y308439D01*
X235687Y307976D01*
X235694Y307620D01*
X235713Y307273D01*
X235746Y306937D01*
X235792Y306610D01*
X235850Y306294D01*
X235922Y305987D01*
X236007Y305690D01*
X236104Y305403D01*
X236215Y305126D01*
X236339Y304859D01*
X236476Y304602D01*
X236626Y304355D01*
X236789Y304118D01*
X236965Y303890D01*
X237356Y303465D01*
X237793Y303086D01*
X238271Y302757D01*
X238525Y302611D01*
X238789Y302478D01*
X239063Y302358D01*
X239347Y302250D01*
X239642Y302155D01*
X239946Y302073D01*
X240261Y302003D01*
X240585Y301946D01*
X240920Y301902D01*
X241265Y301870D01*
X241620Y301851D01*
X241985Y301845D01*
X242463Y301856D01*
G37*
%LPC*%
G36*
X241416Y303562D02*
X240881Y303616D01*
X240377Y303707D01*
X239907Y303833D01*
X239469Y303996D01*
X239063Y304195D01*
X238690Y304429D01*
X238350Y304700D01*
X238046Y305004D01*
X237783Y305339D01*
X237560Y305703D01*
X237378Y306097D01*
X237236Y306522D01*
X237135Y306976D01*
X237074Y307461D01*
X237054Y307976D01*
X237074Y308487D01*
X237136Y308968D01*
X237238Y309419D01*
X237382Y309841D01*
X237567Y310232D01*
X237793Y310595D01*
X238060Y310927D01*
X238367Y311230D01*
X238711Y311500D01*
X239086Y311734D01*
X239492Y311932D01*
X239929Y312094D01*
X240396Y312220D01*
X240895Y312310D01*
X241424Y312364D01*
X241985Y312382D01*
X242570Y312364D01*
X243121Y312310D01*
X243638Y312221D01*
X244121Y312096D01*
X244570Y311935D01*
X244984Y311739D01*
X245365Y311507D01*
X245711Y311239D01*
X246020Y310937D01*
X246288Y310605D01*
X246515Y310242D01*
X246700Y309847D01*
X246844Y309422D01*
X246947Y308965D01*
X247009Y308477D01*
X247030Y307959D01*
X247008Y307454D01*
X246945Y306977D01*
X246838Y306529D01*
X246689Y306109D01*
X246498Y305718D01*
X246264Y305355D01*
X245987Y305020D01*
X245668Y304714D01*
X245312Y304439D01*
X244927Y304202D01*
X244511Y304001D01*
X244066Y303837D01*
X243591Y303709D01*
X243085Y303617D01*
X242550Y303563D01*
X241985Y303544D01*
X241416Y303562D01*
G37*
%LPD*%
G36*
X242463Y326419D02*
X242927Y326453D01*
X243375Y326510D01*
X243808Y326589D01*
X244225Y326692D01*
X244628Y326816D01*
X245015Y326964D01*
X245387Y327135D01*
X245741Y327326D01*
X246074Y327539D01*
X246384Y327772D01*
X246674Y328025D01*
X246942Y328298D01*
X247188Y328592D01*
X247413Y328906D01*
X247616Y329241D01*
X247797Y329594D01*
X247954Y329963D01*
X248086Y330349D01*
X248195Y330751D01*
X248279Y331169D01*
X248339Y331603D01*
X248375Y332054D01*
X248387Y332521D01*
X248375Y332984D01*
X248338Y333431D01*
X248278Y333863D01*
X248192Y334279D01*
X248083Y334680D01*
X247949Y335065D01*
X247790Y335434D01*
X247608Y335788D01*
X247402Y336124D01*
X247176Y336440D01*
X246928Y336735D01*
X246660Y337011D01*
X246370Y337266D01*
X246059Y337502D01*
X245727Y337717D01*
X245374Y337912D01*
X245003Y338085D01*
X244617Y338236D01*
X244216Y338363D01*
X243800Y338467D01*
X243369Y338548D01*
X242922Y338606D01*
X242461Y338640D01*
X241985Y338652D01*
X241507Y338641D01*
X241045Y338606D01*
X240599Y338549D01*
X240169Y338469D01*
X239756Y338366D01*
X239359Y338241D01*
X238978Y338092D01*
X238613Y337921D01*
X238266Y337728D01*
X237941Y337514D01*
X237637Y337280D01*
X237355Y337026D01*
X237093Y336752D01*
X236853Y336457D01*
X236634Y336141D01*
X236436Y335805D01*
X236261Y335452D01*
X236109Y335082D01*
X235980Y334697D01*
X235875Y334297D01*
X235793Y333881D01*
X235734Y333449D01*
X235699Y333002D01*
X235687Y332539D01*
X235694Y332182D01*
X235713Y331836D01*
X235746Y331499D01*
X235792Y331173D01*
X235850Y330856D01*
X235922Y330549D01*
X236007Y330253D01*
X236104Y329966D01*
X236215Y329689D01*
X236339Y329422D01*
X236476Y329165D01*
X236626Y328917D01*
X236789Y328680D01*
X236965Y328453D01*
X237356Y328028D01*
X237793Y327648D01*
X238271Y327319D01*
X238525Y327173D01*
X238789Y327041D01*
X239063Y326920D01*
X239347Y326813D01*
X239642Y326718D01*
X239946Y326635D01*
X240261Y326566D01*
X240585Y326509D01*
X240920Y326465D01*
X241265Y326433D01*
X241620Y326414D01*
X241985Y326408D01*
X242463Y326419D01*
G37*
%LPC*%
G36*
X241416Y328125D02*
X240881Y328179D01*
X240377Y328269D01*
X239907Y328396D01*
X239469Y328558D01*
X239063Y328757D01*
X238690Y328992D01*
X238350Y329263D01*
X238046Y329567D01*
X237783Y329901D01*
X237560Y330265D01*
X237378Y330660D01*
X237236Y331084D01*
X237135Y331539D01*
X237074Y332024D01*
X237054Y332539D01*
X237074Y333049D01*
X237136Y333530D01*
X237238Y333981D01*
X237382Y334403D01*
X237567Y334795D01*
X237793Y335157D01*
X238060Y335490D01*
X238367Y335792D01*
X238711Y336062D01*
X239086Y336296D01*
X239492Y336494D01*
X239929Y336656D01*
X240396Y336782D01*
X240895Y336872D01*
X241424Y336926D01*
X241985Y336944D01*
X242570Y336926D01*
X243121Y336873D01*
X243638Y336783D01*
X244121Y336658D01*
X244570Y336498D01*
X244984Y336301D01*
X245365Y336069D01*
X245711Y335801D01*
X246020Y335500D01*
X246288Y335167D01*
X246515Y334804D01*
X246700Y334410D01*
X246844Y333984D01*
X246947Y333527D01*
X247009Y333040D01*
X247030Y332521D01*
X247008Y332016D01*
X246945Y331540D01*
X246838Y331092D01*
X246689Y330672D01*
X246498Y330280D01*
X246264Y329917D01*
X245987Y329582D01*
X245668Y329276D01*
X245312Y329002D01*
X244927Y328764D01*
X244511Y328563D01*
X244066Y328399D01*
X243591Y328271D01*
X243085Y328180D01*
X242550Y328125D01*
X241985Y328107D01*
X241416Y328125D01*
G37*
%LPD*%
G36*
X248212Y342671D02*
X243088Y342671D01*
X243088Y346516D01*
X248212Y349722D01*
X248212Y351649D01*
X245159Y349637D01*
X242896Y348145D01*
X242823Y348488D01*
X242730Y348812D01*
X242614Y349117D01*
X242477Y349403D01*
X242385Y349559D01*
X242319Y349670D01*
X242139Y349918D01*
X241937Y350147D01*
X241713Y350357D01*
X241472Y350545D01*
X241217Y350707D01*
X240949Y350845D01*
X240667Y350958D01*
X240371Y351045D01*
X240061Y351108D01*
X239738Y351146D01*
X239401Y351158D01*
X238996Y351140D01*
X238615Y351087D01*
X238256Y350999D01*
X237920Y350875D01*
X237606Y350715D01*
X237316Y350520D01*
X237049Y350290D01*
X236804Y350024D01*
X236585Y349725D01*
X236396Y349397D01*
X236236Y349040D01*
X236104Y348652D01*
X236002Y348235D01*
X235930Y347788D01*
X235886Y347311D01*
X235871Y346805D01*
X235871Y340998D01*
X248212Y340998D01*
X248212Y342671D01*
G37*
%LPC*%
G36*
X237211Y342671D02*
X237211Y346639D01*
X237220Y346972D01*
X237247Y347286D01*
X237291Y347579D01*
X237353Y347853D01*
X237432Y348106D01*
X237529Y348339D01*
X237644Y348552D01*
X237776Y348745D01*
X237925Y348917D01*
X238091Y349065D01*
X238272Y349191D01*
X238469Y349294D01*
X238683Y349374D01*
X238912Y349431D01*
X239157Y349465D01*
X239418Y349476D01*
X239689Y349465D01*
X239944Y349431D01*
X240183Y349375D01*
X240407Y349296D01*
X240616Y349194D01*
X240809Y349070D01*
X240986Y348923D01*
X241148Y348754D01*
X241293Y348564D01*
X241418Y348355D01*
X241525Y348128D01*
X241611Y347881D01*
X241679Y347616D01*
X241727Y347333D01*
X241756Y347030D01*
X241766Y346709D01*
X241766Y342671D01*
X237211Y342671D01*
G37*
%LPD*%
G36*
X248212Y289018D02*
X239979Y289018D01*
X238324Y288983D01*
X237351Y288957D01*
X238315Y289246D01*
X239804Y289737D01*
X248212Y292968D01*
X248212Y294142D01*
X239804Y297330D01*
X239319Y297507D01*
X238748Y297694D01*
X237351Y298101D01*
X238639Y298042D01*
X239979Y298022D01*
X248212Y298022D01*
X248212Y299529D01*
X235871Y299529D01*
X235871Y297383D01*
X244428Y294160D01*
X244745Y294045D01*
X245326Y293857D01*
X245949Y293672D01*
X246390Y293564D01*
X245536Y293349D01*
X244964Y293184D01*
X244428Y293012D01*
X235871Y289728D01*
X235871Y287529D01*
X248212Y287529D01*
X248212Y289018D01*
G37*
G36*
X237238Y319575D02*
X248212Y319575D01*
X248212Y321239D01*
X237238Y321239D01*
X237238Y325478D01*
X235871Y325478D01*
X235871Y315336D01*
X237238Y315336D01*
X237238Y319575D01*
G37*
G36*
X217263Y138005D02*
X217727Y138039D01*
X218175Y138096D01*
X218608Y138176D01*
X219025Y138278D01*
X219428Y138403D01*
X219815Y138550D01*
X220187Y138721D01*
X220541Y138913D01*
X220874Y139125D01*
X221184Y139358D01*
X221474Y139611D01*
X221742Y139884D01*
X221988Y140178D01*
X222213Y140493D01*
X222416Y140827D01*
X222597Y141180D01*
X222754Y141550D01*
X222886Y141935D01*
X222995Y142337D01*
X223079Y142755D01*
X223139Y143190D01*
X223175Y143640D01*
X223187Y144107D01*
X223175Y144570D01*
X223138Y145018D01*
X223078Y145449D01*
X222992Y145866D01*
X222883Y146266D01*
X222749Y146651D01*
X222590Y147020D01*
X222408Y147374D01*
X222202Y147710D01*
X221976Y148026D01*
X221728Y148322D01*
X221460Y148597D01*
X221170Y148853D01*
X220859Y149088D01*
X220527Y149303D01*
X220174Y149498D01*
X219803Y149672D01*
X219417Y149822D01*
X219016Y149949D01*
X218600Y150053D01*
X218169Y150134D01*
X217722Y150192D01*
X217261Y150227D01*
X216785Y150238D01*
X216307Y150227D01*
X215845Y150193D01*
X215399Y150135D01*
X214969Y150055D01*
X214556Y149953D01*
X214159Y149827D01*
X213778Y149678D01*
X213413Y149507D01*
X213066Y149314D01*
X212741Y149100D01*
X212437Y148867D01*
X212155Y148612D01*
X211893Y148338D01*
X211653Y148043D01*
X211434Y147728D01*
X211236Y147392D01*
X211061Y147038D01*
X210909Y146669D01*
X210780Y146284D01*
X210675Y145883D01*
X210593Y145467D01*
X210534Y145035D01*
X210499Y144588D01*
X210487Y144125D01*
X210494Y143768D01*
X210513Y143422D01*
X210546Y143086D01*
X210592Y142759D01*
X210650Y142442D01*
X210722Y142136D01*
X210807Y141839D01*
X210904Y141552D01*
X211015Y141275D01*
X211139Y141008D01*
X211276Y140751D01*
X211426Y140504D01*
X211589Y140266D01*
X211765Y140039D01*
X212156Y139614D01*
X212593Y139234D01*
X213071Y138905D01*
X213325Y138760D01*
X213589Y138627D01*
X213863Y138507D01*
X214147Y138399D01*
X214442Y138304D01*
X214746Y138222D01*
X215061Y138152D01*
X215385Y138095D01*
X215720Y138051D01*
X216065Y138019D01*
X216420Y138000D01*
X216785Y137994D01*
X217263Y138005D01*
G37*
%LPC*%
G36*
X216216Y139711D02*
X215681Y139765D01*
X215177Y139856D01*
X214707Y139982D01*
X214269Y140145D01*
X213863Y140343D01*
X213490Y140578D01*
X213150Y140849D01*
X212846Y141153D01*
X212583Y141487D01*
X212360Y141852D01*
X212178Y142246D01*
X212036Y142671D01*
X211935Y143125D01*
X211874Y143610D01*
X211854Y144125D01*
X211874Y144635D01*
X211936Y145116D01*
X212038Y145568D01*
X212182Y145989D01*
X212367Y146381D01*
X212593Y146743D01*
X212860Y147076D01*
X213167Y147379D01*
X213511Y147649D01*
X213886Y147882D01*
X214292Y148080D01*
X214729Y148242D01*
X215196Y148368D01*
X215695Y148458D01*
X216224Y148512D01*
X216785Y148530D01*
X217370Y148512D01*
X217921Y148459D01*
X218438Y148370D01*
X218921Y148245D01*
X219370Y148084D01*
X219784Y147887D01*
X220165Y147655D01*
X220511Y147387D01*
X220820Y147086D01*
X221088Y146754D01*
X221315Y146390D01*
X221500Y145996D01*
X221644Y145570D01*
X221747Y145114D01*
X221809Y144626D01*
X221830Y144107D01*
X221808Y143603D01*
X221745Y143126D01*
X221638Y142678D01*
X221489Y142258D01*
X221298Y141867D01*
X221064Y141504D01*
X220787Y141169D01*
X220468Y140862D01*
X220112Y140588D01*
X219727Y140351D01*
X219311Y140150D01*
X218866Y139985D01*
X218391Y139857D01*
X217885Y139766D01*
X217350Y139711D01*
X216785Y139693D01*
X216216Y139711D01*
G37*
%LPD*%
G36*
X223012Y65882D02*
X217888Y65882D01*
X217888Y69727D01*
X223012Y72933D01*
X223012Y74860D01*
X219959Y72848D01*
X217696Y71356D01*
X217623Y71699D01*
X217530Y72023D01*
X217414Y72328D01*
X217277Y72614D01*
X217185Y72770D01*
X217119Y72881D01*
X216939Y73129D01*
X216737Y73358D01*
X216513Y73568D01*
X216272Y73756D01*
X216017Y73919D01*
X215749Y74056D01*
X215467Y74169D01*
X215171Y74257D01*
X214861Y74319D01*
X214538Y74357D01*
X214201Y74369D01*
X213796Y74352D01*
X213415Y74298D01*
X213056Y74210D01*
X212720Y74086D01*
X212406Y73926D01*
X212116Y73731D01*
X211849Y73501D01*
X211604Y73235D01*
X211385Y72937D01*
X211196Y72609D01*
X211036Y72251D01*
X210904Y71863D01*
X210802Y71446D01*
X210730Y70999D01*
X210686Y70523D01*
X210671Y70016D01*
X210671Y64209D01*
X223012Y64209D01*
X223012Y65882D01*
G37*
%LPC*%
G36*
X212011Y65882D02*
X212011Y69850D01*
X212020Y70184D01*
X212047Y70497D01*
X212091Y70791D01*
X212153Y71064D01*
X212232Y71317D01*
X212329Y71550D01*
X212444Y71763D01*
X212576Y71956D01*
X212725Y72128D01*
X212891Y72276D01*
X213072Y72402D01*
X213269Y72505D01*
X213483Y72585D01*
X213712Y72642D01*
X213957Y72676D01*
X214218Y72688D01*
X214489Y72676D01*
X214744Y72643D01*
X214983Y72586D01*
X215207Y72507D01*
X215416Y72405D01*
X215609Y72281D01*
X215786Y72134D01*
X215948Y71965D01*
X216093Y71775D01*
X216218Y71566D01*
X216325Y71339D01*
X216411Y71093D01*
X216479Y70828D01*
X216527Y70544D01*
X216556Y70241D01*
X216566Y69920D01*
X216566Y65882D01*
X212011Y65882D01*
G37*
%LPD*%
G36*
X223012Y115695D02*
X217888Y115695D01*
X217888Y119540D01*
X223012Y122745D01*
X223012Y124672D01*
X219959Y122660D01*
X217696Y121169D01*
X217623Y121512D01*
X217530Y121836D01*
X217414Y122141D01*
X217277Y122427D01*
X217185Y122583D01*
X217119Y122694D01*
X216939Y122942D01*
X216737Y123171D01*
X216513Y123380D01*
X216272Y123568D01*
X216017Y123731D01*
X215749Y123869D01*
X215467Y123981D01*
X215171Y124069D01*
X214861Y124132D01*
X214538Y124169D01*
X214201Y124182D01*
X213796Y124164D01*
X213415Y124111D01*
X213056Y124022D01*
X212720Y123898D01*
X212406Y123739D01*
X212116Y123544D01*
X211849Y123313D01*
X211604Y123048D01*
X211385Y122749D01*
X211196Y122421D01*
X211036Y122063D01*
X210904Y121676D01*
X210802Y121259D01*
X210730Y120812D01*
X210686Y120335D01*
X210671Y119829D01*
X210671Y114022D01*
X223012Y114022D01*
X223012Y115695D01*
G37*
%LPC*%
G36*
X212011Y115695D02*
X212011Y119662D01*
X212020Y119996D01*
X212047Y120310D01*
X212091Y120603D01*
X212153Y120877D01*
X212232Y121130D01*
X212329Y121363D01*
X212444Y121576D01*
X212576Y121769D01*
X212725Y121940D01*
X212891Y122089D01*
X213072Y122215D01*
X213269Y122317D01*
X213483Y122397D01*
X213712Y122454D01*
X213957Y122489D01*
X214218Y122500D01*
X214489Y122489D01*
X214744Y122455D01*
X214983Y122399D01*
X215207Y122320D01*
X215416Y122218D01*
X215609Y122094D01*
X215786Y121947D01*
X215948Y121778D01*
X216093Y121588D01*
X216218Y121379D01*
X216325Y121151D01*
X216411Y120905D01*
X216479Y120640D01*
X216527Y120356D01*
X216556Y120054D01*
X216566Y119733D01*
X216566Y115695D01*
X212011Y115695D01*
G37*
%LPD*%
G36*
X223012Y111775D02*
X221646Y111775D01*
X221646Y103726D01*
X217345Y103726D01*
X217345Y110891D01*
X215996Y110891D01*
X215996Y103726D01*
X212038Y103726D01*
X212038Y111416D01*
X210671Y111416D01*
X210671Y102053D01*
X223012Y102053D01*
X223012Y111775D01*
G37*
G36*
X220431Y89563D02*
X220787Y89698D01*
X221117Y89861D01*
X221423Y90055D01*
X221705Y90278D01*
X221962Y90531D01*
X222195Y90813D01*
X222403Y91125D01*
X222587Y91467D01*
X222746Y91838D01*
X222881Y92239D01*
X222991Y92669D01*
X223077Y93129D01*
X223138Y93619D01*
X223175Y94139D01*
X223187Y94688D01*
X223173Y95277D01*
X223129Y95833D01*
X223055Y96354D01*
X222953Y96841D01*
X222821Y97294D01*
X222660Y97713D01*
X222470Y98098D01*
X222250Y98449D01*
X222004Y98762D01*
X221733Y99034D01*
X221439Y99263D01*
X221120Y99451D01*
X220778Y99597D01*
X220411Y99702D01*
X220020Y99764D01*
X219605Y99785D01*
X219279Y99773D01*
X218974Y99738D01*
X218692Y99679D01*
X218431Y99597D01*
X218190Y99494D01*
X217965Y99372D01*
X217756Y99233D01*
X217564Y99076D01*
X217387Y98902D01*
X217225Y98713D01*
X217076Y98510D01*
X216942Y98292D01*
X216705Y97824D01*
X216500Y97324D01*
X216325Y96795D01*
X216176Y96242D01*
X215909Y95108D01*
X215728Y94329D01*
X215562Y93691D01*
X215410Y93195D01*
X215274Y92840D01*
X215138Y92572D01*
X214987Y92337D01*
X214822Y92136D01*
X214643Y91968D01*
X214445Y91836D01*
X214222Y91741D01*
X213974Y91685D01*
X213702Y91666D01*
X213466Y91678D01*
X213246Y91715D01*
X213040Y91776D01*
X212850Y91861D01*
X212675Y91970D01*
X212514Y92104D01*
X212369Y92263D01*
X212239Y92445D01*
X212124Y92651D01*
X212024Y92879D01*
X211940Y93129D01*
X211871Y93400D01*
X211818Y93694D01*
X211779Y94009D01*
X211756Y94346D01*
X211749Y94705D01*
X211755Y95033D01*
X211776Y95343D01*
X211811Y95634D01*
X211859Y95907D01*
X211921Y96162D01*
X211997Y96398D01*
X212087Y96616D01*
X212191Y96816D01*
X212310Y96999D01*
X212446Y97166D01*
X212598Y97318D01*
X212768Y97455D01*
X212954Y97577D01*
X213157Y97683D01*
X213377Y97774D01*
X213614Y97849D01*
X213325Y99496D01*
X212952Y99374D01*
X212607Y99231D01*
X212290Y99067D01*
X212001Y98883D01*
X211741Y98678D01*
X211510Y98452D01*
X211306Y98205D01*
X211131Y97937D01*
X210980Y97644D01*
X210849Y97319D01*
X210739Y96964D01*
X210648Y96577D01*
X210578Y96160D01*
X210528Y95712D01*
X210497Y95233D01*
X210487Y94723D01*
X210501Y94174D01*
X210541Y93658D01*
X210608Y93175D01*
X210702Y92725D01*
X210823Y92307D01*
X210970Y91922D01*
X211144Y91570D01*
X211346Y91250D01*
X211572Y90966D01*
X211820Y90719D01*
X212092Y90511D01*
X212386Y90340D01*
X212703Y90207D01*
X213042Y90113D01*
X213404Y90056D01*
X213789Y90037D01*
X214125Y90051D01*
X214442Y90095D01*
X214738Y90167D01*
X215015Y90269D01*
X215274Y90398D01*
X215516Y90553D01*
X215741Y90733D01*
X215948Y90939D01*
X216143Y91178D01*
X216328Y91457D01*
X216504Y91776D01*
X216671Y92135D01*
X216833Y92557D01*
X216995Y93068D01*
X217157Y93668D01*
X217319Y94355D01*
X217678Y95888D01*
X217766Y96221D01*
X217864Y96531D01*
X217972Y96817D01*
X218090Y97079D01*
X218221Y97314D01*
X218368Y97522D01*
X218531Y97702D01*
X218712Y97854D01*
X218914Y97975D01*
X219145Y98061D01*
X219405Y98113D01*
X219693Y98130D01*
X219954Y98116D01*
X220199Y98075D01*
X220427Y98006D01*
X220640Y97910D01*
X220836Y97786D01*
X221015Y97635D01*
X221179Y97456D01*
X221326Y97250D01*
X221456Y97018D01*
X221569Y96763D01*
X221665Y96485D01*
X221743Y96184D01*
X221804Y95860D01*
X221847Y95513D01*
X221873Y95142D01*
X221882Y94749D01*
X221874Y94367D01*
X221850Y94006D01*
X221809Y93665D01*
X221752Y93345D01*
X221679Y93046D01*
X221589Y92767D01*
X221483Y92508D01*
X221361Y92270D01*
X221222Y92052D01*
X221064Y91854D01*
X220887Y91676D01*
X220692Y91517D01*
X220479Y91378D01*
X220247Y91259D01*
X219996Y91159D01*
X219728Y91079D01*
X220052Y89459D01*
X220431Y89563D01*
G37*
G36*
X217269Y76598D02*
X217737Y76631D01*
X218188Y76687D01*
X218623Y76765D01*
X219041Y76865D01*
X219443Y76988D01*
X219828Y77133D01*
X220196Y77300D01*
X220546Y77489D01*
X220875Y77698D01*
X221183Y77927D01*
X221471Y78176D01*
X221737Y78446D01*
X221983Y78736D01*
X222208Y79046D01*
X222412Y79376D01*
X222594Y79724D01*
X222751Y80088D01*
X222884Y80468D01*
X222993Y80864D01*
X223078Y81275D01*
X223139Y81702D01*
X223175Y82145D01*
X223187Y82604D01*
X223174Y83052D01*
X223135Y83487D01*
X223070Y83908D01*
X222979Y84315D01*
X222862Y84708D01*
X222719Y85087D01*
X222550Y85453D01*
X222355Y85805D01*
X222135Y86140D01*
X221891Y86456D01*
X221624Y86753D01*
X221333Y87030D01*
X221017Y87288D01*
X220678Y87527D01*
X220316Y87746D01*
X219929Y87946D01*
X219246Y86580D01*
X219557Y86412D01*
X219847Y86234D01*
X220118Y86045D01*
X220369Y85847D01*
X220599Y85639D01*
X220810Y85420D01*
X221000Y85192D01*
X221171Y84953D01*
X221321Y84704D01*
X221451Y84446D01*
X221561Y84177D01*
X221652Y83898D01*
X221722Y83609D01*
X221772Y83310D01*
X221802Y83001D01*
X221812Y82682D01*
X221791Y82190D01*
X221726Y81723D01*
X221618Y81283D01*
X221467Y80868D01*
X221273Y80480D01*
X221036Y80118D01*
X220756Y79782D01*
X220433Y79472D01*
X220074Y79194D01*
X219687Y78953D01*
X219273Y78749D01*
X218831Y78582D01*
X218361Y78452D01*
X217863Y78360D01*
X217338Y78304D01*
X216785Y78286D01*
X216226Y78303D01*
X215698Y78357D01*
X215201Y78446D01*
X214734Y78570D01*
X214298Y78730D01*
X213892Y78926D01*
X213517Y79157D01*
X213172Y79424D01*
X212863Y79723D01*
X212595Y80050D01*
X212369Y80406D01*
X212183Y80790D01*
X212039Y81203D01*
X211936Y81644D01*
X211874Y82114D01*
X211854Y82612D01*
X211863Y82933D01*
X211889Y83243D01*
X211934Y83541D01*
X211996Y83829D01*
X212076Y84105D01*
X212174Y84370D01*
X212290Y84624D01*
X212423Y84868D01*
X212573Y85097D01*
X212739Y85310D01*
X212921Y85507D01*
X213119Y85688D01*
X213333Y85852D01*
X213563Y86000D01*
X213808Y86132D01*
X214070Y86247D01*
X213544Y87832D01*
X213177Y87666D01*
X212833Y87478D01*
X212512Y87267D01*
X212215Y87035D01*
X211941Y86781D01*
X211690Y86505D01*
X211462Y86208D01*
X211258Y85888D01*
X211077Y85547D01*
X210921Y85186D01*
X210788Y84805D01*
X210680Y84403D01*
X210596Y83982D01*
X210535Y83540D01*
X210499Y83077D01*
X210487Y82595D01*
X210494Y82247D01*
X210513Y81909D01*
X210546Y81580D01*
X210592Y81261D01*
X210651Y80952D01*
X210723Y80652D01*
X210808Y80362D01*
X210906Y80081D01*
X211017Y79810D01*
X211141Y79548D01*
X211278Y79296D01*
X211428Y79054D01*
X211768Y78598D01*
X212160Y78180D01*
X212598Y77807D01*
X213077Y77483D01*
X213595Y77209D01*
X213869Y77091D01*
X214153Y76985D01*
X214447Y76892D01*
X214751Y76811D01*
X215065Y76742D01*
X215389Y76686D01*
X215723Y76642D01*
X216067Y76611D01*
X216421Y76593D01*
X216785Y76586D01*
X217269Y76598D01*
G37*
G36*
X223012Y130290D02*
X223012Y132025D01*
X210671Y137061D01*
X210671Y135300D01*
X219360Y131902D01*
X221541Y131166D01*
X219360Y130431D01*
X210671Y127015D01*
X210671Y125254D01*
X223012Y130290D01*
G37*
G36*
X123149Y103948D02*
X123505Y104082D01*
X123835Y104246D01*
X124141Y104439D01*
X124423Y104662D01*
X124680Y104915D01*
X124913Y105197D01*
X125121Y105509D01*
X125305Y105851D01*
X125464Y106222D01*
X125599Y106623D01*
X125709Y107054D01*
X125795Y107514D01*
X125856Y108004D01*
X125893Y108523D01*
X125905Y109072D01*
X125891Y109661D01*
X125847Y110217D01*
X125773Y110738D01*
X125671Y111225D01*
X125539Y111679D01*
X125378Y112098D01*
X125188Y112483D01*
X124968Y112834D01*
X124722Y113147D01*
X124451Y113418D01*
X124157Y113648D01*
X123838Y113836D01*
X123496Y113982D01*
X123129Y114086D01*
X122738Y114149D01*
X122323Y114169D01*
X121997Y114158D01*
X121692Y114122D01*
X121410Y114064D01*
X121149Y113981D01*
X120908Y113878D01*
X120683Y113757D01*
X120474Y113617D01*
X120282Y113460D01*
X120105Y113286D01*
X119943Y113098D01*
X119794Y112894D01*
X119660Y112676D01*
X119423Y112209D01*
X119218Y111708D01*
X119043Y111179D01*
X118894Y110627D01*
X118627Y109492D01*
X118446Y108713D01*
X118280Y108076D01*
X118128Y107579D01*
X117992Y107224D01*
X117856Y106956D01*
X117705Y106721D01*
X117540Y106520D01*
X117361Y106352D01*
X117163Y106220D01*
X116940Y106126D01*
X116692Y106069D01*
X116420Y106050D01*
X116184Y106062D01*
X115964Y106099D01*
X115758Y106160D01*
X115568Y106245D01*
X115393Y106355D01*
X115232Y106489D01*
X115087Y106647D01*
X114957Y106830D01*
X114842Y107036D01*
X114742Y107263D01*
X114658Y107513D01*
X114589Y107784D01*
X114536Y108078D01*
X114497Y108393D01*
X114474Y108730D01*
X114467Y109089D01*
X114473Y109418D01*
X114494Y109727D01*
X114529Y110019D01*
X114577Y110292D01*
X114639Y110546D01*
X114715Y110783D01*
X114805Y111001D01*
X114909Y111200D01*
X115028Y111383D01*
X115164Y111551D01*
X115316Y111703D01*
X115486Y111840D01*
X115672Y111961D01*
X115875Y112067D01*
X116095Y112158D01*
X116332Y112234D01*
X116043Y113880D01*
X115670Y113758D01*
X115325Y113615D01*
X115008Y113452D01*
X114719Y113267D01*
X114459Y113062D01*
X114228Y112836D01*
X114024Y112589D01*
X113849Y112321D01*
X113698Y112028D01*
X113567Y111703D01*
X113457Y111348D01*
X113366Y110962D01*
X113296Y110544D01*
X113246Y110096D01*
X113215Y109617D01*
X113205Y109107D01*
X113219Y108558D01*
X113259Y108043D01*
X113326Y107559D01*
X113420Y107109D01*
X113541Y106691D01*
X113688Y106306D01*
X113862Y105954D01*
X114064Y105634D01*
X114290Y105350D01*
X114538Y105104D01*
X114810Y104895D01*
X115104Y104724D01*
X115421Y104592D01*
X115760Y104497D01*
X116122Y104440D01*
X116507Y104421D01*
X116843Y104436D01*
X117160Y104479D01*
X117456Y104552D01*
X117733Y104653D01*
X117992Y104782D01*
X118234Y104937D01*
X118459Y105117D01*
X118666Y105323D01*
X118861Y105562D01*
X119046Y105841D01*
X119222Y106160D01*
X119389Y106519D01*
X119551Y106942D01*
X119713Y107453D01*
X119875Y108052D01*
X120037Y108739D01*
X120396Y110272D01*
X120484Y110606D01*
X120582Y110916D01*
X120690Y111201D01*
X120808Y111463D01*
X120939Y111699D01*
X121086Y111906D01*
X121249Y112086D01*
X121430Y112238D01*
X121632Y112359D01*
X121863Y112445D01*
X122123Y112497D01*
X122411Y112514D01*
X122672Y112500D01*
X122917Y112459D01*
X123145Y112390D01*
X123358Y112294D01*
X123554Y112170D01*
X123733Y112019D01*
X123897Y111840D01*
X124044Y111634D01*
X124174Y111402D01*
X124287Y111147D01*
X124383Y110870D01*
X124461Y110569D01*
X124522Y110244D01*
X124565Y109897D01*
X124591Y109527D01*
X124600Y109133D01*
X124592Y108752D01*
X124568Y108390D01*
X124527Y108050D01*
X124470Y107730D01*
X124397Y107430D01*
X124307Y107151D01*
X124201Y106893D01*
X124079Y106655D01*
X123940Y106437D01*
X123782Y106239D01*
X123605Y106060D01*
X123410Y105901D01*
X123197Y105762D01*
X122965Y105643D01*
X122714Y105543D01*
X122446Y105463D01*
X122770Y103843D01*
X123149Y103948D01*
G37*
G36*
X125730Y124066D02*
X124390Y124066D01*
X124390Y121062D01*
X113389Y121062D01*
X113389Y119608D01*
X115395Y116691D01*
X116884Y116691D01*
X114896Y119477D01*
X124390Y119477D01*
X124390Y116332D01*
X125730Y116332D01*
X125730Y124066D01*
G37*
G36*
X205699Y103440D02*
X206055Y103574D01*
X206385Y103738D01*
X206691Y103931D01*
X206973Y104154D01*
X207230Y104407D01*
X207463Y104689D01*
X207671Y105001D01*
X207855Y105343D01*
X208014Y105714D01*
X208149Y106115D01*
X208259Y106546D01*
X208345Y107006D01*
X208406Y107496D01*
X208443Y108015D01*
X208455Y108564D01*
X208441Y109153D01*
X208397Y109709D01*
X208323Y110230D01*
X208221Y110717D01*
X208089Y111171D01*
X207928Y111590D01*
X207738Y111975D01*
X207518Y112326D01*
X207272Y112639D01*
X207001Y112910D01*
X206707Y113140D01*
X206388Y113328D01*
X206046Y113474D01*
X205679Y113578D01*
X205288Y113641D01*
X204873Y113661D01*
X204547Y113650D01*
X204242Y113614D01*
X203960Y113556D01*
X203699Y113473D01*
X203458Y113370D01*
X203233Y113249D01*
X203024Y113109D01*
X202832Y112952D01*
X202655Y112778D01*
X202493Y112590D01*
X202344Y112386D01*
X202210Y112168D01*
X201973Y111701D01*
X201768Y111200D01*
X201593Y110671D01*
X201444Y110119D01*
X201177Y108984D01*
X200996Y108205D01*
X200830Y107568D01*
X200678Y107071D01*
X200542Y106716D01*
X200406Y106448D01*
X200255Y106213D01*
X200090Y106012D01*
X199911Y105844D01*
X199713Y105712D01*
X199490Y105618D01*
X199242Y105561D01*
X198970Y105542D01*
X198734Y105554D01*
X198514Y105591D01*
X198308Y105652D01*
X198118Y105737D01*
X197943Y105847D01*
X197782Y105981D01*
X197637Y106139D01*
X197507Y106322D01*
X197392Y106528D01*
X197292Y106755D01*
X197208Y107005D01*
X197139Y107276D01*
X197086Y107570D01*
X197047Y107885D01*
X197024Y108222D01*
X197017Y108581D01*
X197023Y108910D01*
X197044Y109219D01*
X197079Y109511D01*
X197127Y109784D01*
X197189Y110038D01*
X197265Y110275D01*
X197355Y110493D01*
X197459Y110692D01*
X197578Y110875D01*
X197714Y111043D01*
X197866Y111195D01*
X198036Y111332D01*
X198222Y111453D01*
X198425Y111559D01*
X198645Y111650D01*
X198882Y111726D01*
X198593Y113372D01*
X198220Y113250D01*
X197875Y113107D01*
X197558Y112944D01*
X197269Y112759D01*
X197009Y112554D01*
X196778Y112328D01*
X196574Y112081D01*
X196399Y111813D01*
X196248Y111520D01*
X196117Y111195D01*
X196007Y110840D01*
X195916Y110454D01*
X195846Y110036D01*
X195796Y109588D01*
X195765Y109109D01*
X195755Y108599D01*
X195769Y108050D01*
X195809Y107535D01*
X195876Y107051D01*
X195970Y106601D01*
X196091Y106183D01*
X196238Y105798D01*
X196412Y105446D01*
X196614Y105126D01*
X196840Y104842D01*
X197088Y104596D01*
X197360Y104387D01*
X197654Y104216D01*
X197971Y104084D01*
X198310Y103989D01*
X198672Y103932D01*
X199057Y103913D01*
X199393Y103928D01*
X199710Y103971D01*
X200006Y104044D01*
X200283Y104145D01*
X200542Y104274D01*
X200784Y104429D01*
X201009Y104609D01*
X201216Y104815D01*
X201411Y105054D01*
X201596Y105333D01*
X201772Y105652D01*
X201939Y106011D01*
X202101Y106434D01*
X202263Y106945D01*
X202425Y107544D01*
X202587Y108231D01*
X202946Y109764D01*
X203034Y110098D01*
X203132Y110408D01*
X203240Y110693D01*
X203358Y110955D01*
X203489Y111191D01*
X203636Y111398D01*
X203799Y111578D01*
X203980Y111730D01*
X204182Y111851D01*
X204413Y111937D01*
X204673Y111989D01*
X204961Y112006D01*
X205222Y111992D01*
X205467Y111951D01*
X205695Y111882D01*
X205908Y111786D01*
X206104Y111662D01*
X206283Y111511D01*
X206447Y111332D01*
X206594Y111126D01*
X206724Y110894D01*
X206837Y110639D01*
X206933Y110362D01*
X207011Y110061D01*
X207072Y109736D01*
X207115Y109389D01*
X207141Y109019D01*
X207150Y108625D01*
X207142Y108244D01*
X207118Y107882D01*
X207077Y107542D01*
X207020Y107222D01*
X206947Y106922D01*
X206857Y106643D01*
X206751Y106385D01*
X206629Y106147D01*
X206490Y105929D01*
X206332Y105731D01*
X206155Y105552D01*
X205960Y105393D01*
X205747Y105254D01*
X205515Y105135D01*
X205264Y105035D01*
X204996Y104955D01*
X205320Y103335D01*
X205699Y103440D01*
G37*
G36*
X208280Y123532D02*
X206940Y123532D01*
X206940Y117094D01*
X206630Y117247D01*
X206315Y117440D01*
X205993Y117676D01*
X205666Y117953D01*
X205325Y118276D01*
X204964Y118651D01*
X204583Y119078D01*
X204181Y119556D01*
X203485Y120397D01*
X202887Y121090D01*
X202386Y121636D01*
X201983Y122034D01*
X201628Y122338D01*
X201273Y122602D01*
X200918Y122827D01*
X200564Y123011D01*
X200208Y123154D01*
X199852Y123257D01*
X199495Y123319D01*
X199136Y123339D01*
X198743Y123324D01*
X198372Y123277D01*
X198025Y123198D01*
X197701Y123089D01*
X197400Y122947D01*
X197122Y122775D01*
X196867Y122571D01*
X196636Y122336D01*
X196429Y122072D01*
X196250Y121781D01*
X196099Y121463D01*
X195975Y121118D01*
X195879Y120746D01*
X195810Y120347D01*
X195769Y119921D01*
X195755Y119468D01*
X195769Y119053D01*
X195810Y118657D01*
X195878Y118280D01*
X195974Y117923D01*
X196097Y117585D01*
X196248Y117267D01*
X196426Y116967D01*
X196631Y116687D01*
X196860Y116431D01*
X197107Y116203D01*
X197373Y116003D01*
X197658Y115832D01*
X197962Y115689D01*
X198285Y115575D01*
X198627Y115488D01*
X198987Y115430D01*
X199136Y117042D01*
X198896Y117079D01*
X198669Y117132D01*
X198456Y117203D01*
X198257Y117290D01*
X198072Y117395D01*
X197900Y117516D01*
X197743Y117653D01*
X197599Y117808D01*
X197471Y117977D01*
X197359Y118157D01*
X197265Y118347D01*
X197188Y118549D01*
X197129Y118762D01*
X197086Y118987D01*
X197060Y119222D01*
X197052Y119468D01*
X197060Y119726D01*
X197087Y119969D01*
X197130Y120198D01*
X197192Y120412D01*
X197271Y120611D01*
X197367Y120797D01*
X197481Y120967D01*
X197612Y121123D01*
X197759Y121263D01*
X197921Y121384D01*
X198097Y121486D01*
X198287Y121570D01*
X198491Y121635D01*
X198709Y121682D01*
X198942Y121710D01*
X199189Y121719D01*
X199555Y121697D01*
X199902Y121632D01*
X200230Y121524D01*
X200537Y121373D01*
X200832Y121187D01*
X201120Y120973D01*
X201401Y120733D01*
X201676Y120466D01*
X202219Y119872D01*
X202762Y119210D01*
X203328Y118510D01*
X203940Y117804D01*
X204267Y117453D01*
X204612Y117111D01*
X204976Y116777D01*
X205359Y116451D01*
X205766Y116141D01*
X206203Y115856D01*
X206670Y115596D01*
X207168Y115360D01*
X208280Y115360D01*
X208280Y123532D01*
G37*
D10*
X253800Y293170D02*
X253800Y305870D01*
X260150Y312220D01*
X272850Y312220D01*
X279200Y305870D01*
X272850Y286820D02*
X260150Y286820D01*
X253800Y293170D01*
X272850Y286820D02*
X279200Y293170D01*
X279200Y305870D01*
X260150Y312220D02*
X253800Y318570D01*
X253800Y331270D01*
X260150Y337620D01*
X272850Y337620D01*
X279200Y331270D01*
X279200Y318570D01*
X272850Y312220D01*
X228600Y82550D02*
X228600Y69850D01*
X228600Y82550D02*
X234950Y88900D01*
X247650Y88900D01*
X254000Y82550D01*
X234950Y88900D02*
X228600Y95250D01*
X228600Y107950D01*
X234950Y114300D01*
X247650Y114300D01*
X254000Y107950D01*
X254000Y95250D01*
X247650Y88900D01*
X247650Y63500D02*
X234950Y63500D01*
X228600Y69850D01*
X247650Y63500D02*
X254000Y69850D01*
X254000Y82550D01*
X234950Y114300D02*
X228600Y120650D01*
X228600Y133350D01*
X234950Y139700D01*
X247650Y139700D01*
X254000Y133350D01*
X254000Y120650D01*
X247650Y114300D01*
X68580Y64008D02*
X68580Y61468D01*
X83820Y61468D01*
X83820Y64008D01*
X83820Y124968D02*
X83820Y127508D01*
X68580Y127508D01*
X68580Y124968D01*
D11*
X104140Y107188D02*
X106680Y107188D01*
X104140Y107188D02*
X104140Y81788D01*
X106680Y81788D01*
X48260Y83058D02*
X48260Y107188D01*
X48260Y83058D02*
X45720Y83058D01*
X45720Y107188D02*
X48260Y107188D01*
D10*
X45720Y107188D02*
X45720Y116078D01*
X106680Y81788D02*
X106680Y72898D01*
X106680Y81788D02*
X106680Y107188D01*
X106680Y116078D01*
X45720Y107188D02*
X45720Y83058D01*
X45720Y72898D01*
X66040Y64008D02*
X68580Y64008D01*
X83820Y64008D02*
X86360Y64008D01*
X68580Y124968D02*
X66040Y124968D01*
X83820Y124968D02*
X86360Y124968D01*
X58420Y94488D02*
X58425Y94924D01*
X58441Y95360D01*
X58468Y95796D01*
X58506Y96231D01*
X58554Y96664D01*
X58612Y97097D01*
X58682Y97528D01*
X58762Y97957D01*
X58852Y98384D01*
X58953Y98808D01*
X59064Y99230D01*
X59186Y99649D01*
X59317Y100065D01*
X59459Y100478D01*
X59611Y100887D01*
X59773Y101292D01*
X59945Y101693D01*
X60127Y102090D01*
X60318Y102482D01*
X60519Y102869D01*
X60730Y103252D01*
X60950Y103629D01*
X61179Y104000D01*
X61416Y104366D01*
X61663Y104726D01*
X61919Y105080D01*
X62183Y105427D01*
X62456Y105768D01*
X62737Y106101D01*
X63026Y106428D01*
X63323Y106748D01*
X63628Y107060D01*
X63940Y107365D01*
X64260Y107662D01*
X64587Y107951D01*
X64920Y108232D01*
X65261Y108505D01*
X65608Y108769D01*
X65962Y109025D01*
X66322Y109272D01*
X66688Y109509D01*
X67059Y109738D01*
X67436Y109958D01*
X67819Y110169D01*
X68206Y110370D01*
X68598Y110561D01*
X68995Y110743D01*
X69396Y110915D01*
X69801Y111077D01*
X70210Y111229D01*
X70623Y111371D01*
X71039Y111502D01*
X71458Y111624D01*
X71880Y111735D01*
X72304Y111836D01*
X72731Y111926D01*
X73160Y112006D01*
X73591Y112076D01*
X74024Y112134D01*
X74457Y112182D01*
X74892Y112220D01*
X75328Y112247D01*
X75764Y112263D01*
X76200Y112268D01*
X76636Y112263D01*
X77072Y112247D01*
X77508Y112220D01*
X77943Y112182D01*
X78376Y112134D01*
X78809Y112076D01*
X79240Y112006D01*
X79669Y111926D01*
X80096Y111836D01*
X80520Y111735D01*
X80942Y111624D01*
X81361Y111502D01*
X81777Y111371D01*
X82190Y111229D01*
X82599Y111077D01*
X83004Y110915D01*
X83405Y110743D01*
X83802Y110561D01*
X84194Y110370D01*
X84581Y110169D01*
X84964Y109958D01*
X85341Y109738D01*
X85712Y109509D01*
X86078Y109272D01*
X86438Y109025D01*
X86792Y108769D01*
X87139Y108505D01*
X87480Y108232D01*
X87813Y107951D01*
X88140Y107662D01*
X88460Y107365D01*
X88772Y107060D01*
X89077Y106748D01*
X89374Y106428D01*
X89663Y106101D01*
X89944Y105768D01*
X90217Y105427D01*
X90481Y105080D01*
X90737Y104726D01*
X90984Y104366D01*
X91221Y104000D01*
X91450Y103629D01*
X91670Y103252D01*
X91881Y102869D01*
X92082Y102482D01*
X92273Y102090D01*
X92455Y101693D01*
X92627Y101292D01*
X92789Y100887D01*
X92941Y100478D01*
X93083Y100065D01*
X93214Y99649D01*
X93336Y99230D01*
X93447Y98808D01*
X93548Y98384D01*
X93638Y97957D01*
X93718Y97528D01*
X93788Y97097D01*
X93846Y96664D01*
X93894Y96231D01*
X93932Y95796D01*
X93959Y95360D01*
X93975Y94924D01*
X93980Y94488D01*
X93975Y94052D01*
X93959Y93616D01*
X93932Y93180D01*
X93894Y92745D01*
X93846Y92312D01*
X93788Y91879D01*
X93718Y91448D01*
X93638Y91019D01*
X93548Y90592D01*
X93447Y90168D01*
X93336Y89746D01*
X93214Y89327D01*
X93083Y88911D01*
X92941Y88498D01*
X92789Y88089D01*
X92627Y87684D01*
X92455Y87283D01*
X92273Y86886D01*
X92082Y86494D01*
X91881Y86107D01*
X91670Y85724D01*
X91450Y85347D01*
X91221Y84976D01*
X90984Y84610D01*
X90737Y84250D01*
X90481Y83896D01*
X90217Y83549D01*
X89944Y83208D01*
X89663Y82875D01*
X89374Y82548D01*
X89077Y82228D01*
X88772Y81916D01*
X88460Y81611D01*
X88140Y81314D01*
X87813Y81025D01*
X87480Y80744D01*
X87139Y80471D01*
X86792Y80207D01*
X86438Y79951D01*
X86078Y79704D01*
X85712Y79467D01*
X85341Y79238D01*
X84964Y79018D01*
X84581Y78807D01*
X84194Y78606D01*
X83802Y78415D01*
X83405Y78233D01*
X83004Y78061D01*
X82599Y77899D01*
X82190Y77747D01*
X81777Y77605D01*
X81361Y77474D01*
X80942Y77352D01*
X80520Y77241D01*
X80096Y77140D01*
X79669Y77050D01*
X79240Y76970D01*
X78809Y76900D01*
X78376Y76842D01*
X77943Y76794D01*
X77508Y76756D01*
X77072Y76729D01*
X76636Y76713D01*
X76200Y76708D01*
X75764Y76713D01*
X75328Y76729D01*
X74892Y76756D01*
X74457Y76794D01*
X74024Y76842D01*
X73591Y76900D01*
X73160Y76970D01*
X72731Y77050D01*
X72304Y77140D01*
X71880Y77241D01*
X71458Y77352D01*
X71039Y77474D01*
X70623Y77605D01*
X70210Y77747D01*
X69801Y77899D01*
X69396Y78061D01*
X68995Y78233D01*
X68598Y78415D01*
X68206Y78606D01*
X67819Y78807D01*
X67436Y79018D01*
X67059Y79238D01*
X66688Y79467D01*
X66322Y79704D01*
X65962Y79951D01*
X65608Y80207D01*
X65261Y80471D01*
X64920Y80744D01*
X64587Y81025D01*
X64260Y81314D01*
X63940Y81611D01*
X63628Y81916D01*
X63323Y82228D01*
X63026Y82548D01*
X62737Y82875D01*
X62456Y83208D01*
X62183Y83549D01*
X61919Y83896D01*
X61663Y84250D01*
X61416Y84610D01*
X61179Y84976D01*
X60950Y85347D01*
X60730Y85724D01*
X60519Y86107D01*
X60318Y86494D01*
X60127Y86886D01*
X59945Y87283D01*
X59773Y87684D01*
X59611Y88089D01*
X59459Y88498D01*
X59317Y88911D01*
X59186Y89327D01*
X59064Y89746D01*
X58953Y90168D01*
X58852Y90592D01*
X58762Y91019D01*
X58682Y91448D01*
X58612Y91879D01*
X58554Y92312D01*
X58506Y92745D01*
X58468Y93180D01*
X58441Y93616D01*
X58425Y94052D01*
X58420Y94488D01*
X73660Y94488D02*
X73662Y94588D01*
X73668Y94689D01*
X73678Y94788D01*
X73692Y94888D01*
X73709Y94987D01*
X73731Y95085D01*
X73757Y95182D01*
X73786Y95278D01*
X73819Y95372D01*
X73856Y95466D01*
X73896Y95558D01*
X73940Y95648D01*
X73988Y95736D01*
X74039Y95823D01*
X74093Y95907D01*
X74151Y95989D01*
X74212Y96069D01*
X74276Y96146D01*
X74343Y96221D01*
X74413Y96293D01*
X74486Y96362D01*
X74561Y96428D01*
X74639Y96492D01*
X74719Y96552D01*
X74802Y96609D01*
X74887Y96662D01*
X74974Y96712D01*
X75063Y96759D01*
X75153Y96802D01*
X75245Y96842D01*
X75339Y96878D01*
X75434Y96910D01*
X75530Y96938D01*
X75628Y96963D01*
X75726Y96983D01*
X75825Y97000D01*
X75925Y97013D01*
X76024Y97022D01*
X76125Y97027D01*
X76225Y97028D01*
X76325Y97025D01*
X76426Y97018D01*
X76525Y97007D01*
X76625Y96992D01*
X76723Y96974D01*
X76821Y96951D01*
X76918Y96924D01*
X77013Y96894D01*
X77108Y96860D01*
X77201Y96822D01*
X77292Y96781D01*
X77382Y96736D01*
X77470Y96688D01*
X77556Y96636D01*
X77640Y96581D01*
X77721Y96522D01*
X77800Y96460D01*
X77877Y96396D01*
X77951Y96328D01*
X78022Y96257D01*
X78091Y96184D01*
X78156Y96108D01*
X78219Y96029D01*
X78278Y95948D01*
X78334Y95865D01*
X78387Y95780D01*
X78436Y95692D01*
X78482Y95603D01*
X78524Y95512D01*
X78563Y95419D01*
X78598Y95325D01*
X78629Y95230D01*
X78657Y95133D01*
X78680Y95036D01*
X78700Y94937D01*
X78716Y94838D01*
X78728Y94739D01*
X78736Y94638D01*
X78740Y94538D01*
X78740Y94438D01*
X78736Y94338D01*
X78728Y94237D01*
X78716Y94138D01*
X78700Y94039D01*
X78680Y93940D01*
X78657Y93843D01*
X78629Y93746D01*
X78598Y93651D01*
X78563Y93557D01*
X78524Y93464D01*
X78482Y93373D01*
X78436Y93284D01*
X78387Y93196D01*
X78334Y93111D01*
X78278Y93028D01*
X78219Y92947D01*
X78156Y92868D01*
X78091Y92792D01*
X78022Y92719D01*
X77951Y92648D01*
X77877Y92580D01*
X77800Y92516D01*
X77721Y92454D01*
X77640Y92395D01*
X77556Y92340D01*
X77470Y92288D01*
X77382Y92240D01*
X77292Y92195D01*
X77201Y92154D01*
X77108Y92116D01*
X77013Y92082D01*
X76918Y92052D01*
X76821Y92025D01*
X76723Y92002D01*
X76625Y91984D01*
X76525Y91969D01*
X76426Y91958D01*
X76325Y91951D01*
X76225Y91948D01*
X76125Y91949D01*
X76024Y91954D01*
X75925Y91963D01*
X75825Y91976D01*
X75726Y91993D01*
X75628Y92013D01*
X75530Y92038D01*
X75434Y92066D01*
X75339Y92098D01*
X75245Y92134D01*
X75153Y92174D01*
X75063Y92217D01*
X74974Y92264D01*
X74887Y92314D01*
X74802Y92367D01*
X74719Y92424D01*
X74639Y92484D01*
X74561Y92548D01*
X74486Y92614D01*
X74413Y92683D01*
X74343Y92755D01*
X74276Y92830D01*
X74212Y92907D01*
X74151Y92987D01*
X74093Y93069D01*
X74039Y93153D01*
X73988Y93240D01*
X73940Y93328D01*
X73896Y93418D01*
X73856Y93510D01*
X73819Y93604D01*
X73786Y93698D01*
X73757Y93794D01*
X73731Y93891D01*
X73709Y93989D01*
X73692Y94088D01*
X73678Y94188D01*
X73668Y94287D01*
X73662Y94388D01*
X73660Y94488D01*
X151130Y63500D02*
X151130Y60960D01*
X166370Y60960D01*
X166370Y63500D01*
X166370Y124460D02*
X166370Y127000D01*
X151130Y127000D01*
X151130Y124460D01*
D11*
X186690Y106680D02*
X189230Y106680D01*
X186690Y106680D02*
X186690Y81280D01*
X189230Y81280D01*
X130810Y82550D02*
X130810Y106680D01*
X130810Y82550D02*
X128270Y82550D01*
X128270Y106680D02*
X130810Y106680D01*
D10*
X128270Y106680D02*
X128270Y115570D01*
X189230Y81280D02*
X189230Y72390D01*
X189230Y81280D02*
X189230Y106680D01*
X189230Y115570D01*
X128270Y106680D02*
X128270Y82550D01*
X128270Y72390D01*
X148590Y63500D02*
X151130Y63500D01*
X166370Y63500D02*
X168910Y63500D01*
X151130Y124460D02*
X148590Y124460D01*
X166370Y124460D02*
X168910Y124460D01*
X140970Y93980D02*
X140975Y94416D01*
X140991Y94852D01*
X141018Y95288D01*
X141056Y95723D01*
X141104Y96156D01*
X141162Y96589D01*
X141232Y97020D01*
X141312Y97449D01*
X141402Y97876D01*
X141503Y98300D01*
X141614Y98722D01*
X141736Y99141D01*
X141867Y99557D01*
X142009Y99970D01*
X142161Y100379D01*
X142323Y100784D01*
X142495Y101185D01*
X142677Y101582D01*
X142868Y101974D01*
X143069Y102361D01*
X143280Y102744D01*
X143500Y103121D01*
X143729Y103492D01*
X143966Y103858D01*
X144213Y104218D01*
X144469Y104572D01*
X144733Y104919D01*
X145006Y105260D01*
X145287Y105593D01*
X145576Y105920D01*
X145873Y106240D01*
X146178Y106552D01*
X146490Y106857D01*
X146810Y107154D01*
X147137Y107443D01*
X147470Y107724D01*
X147811Y107997D01*
X148158Y108261D01*
X148512Y108517D01*
X148872Y108764D01*
X149238Y109001D01*
X149609Y109230D01*
X149986Y109450D01*
X150369Y109661D01*
X150756Y109862D01*
X151148Y110053D01*
X151545Y110235D01*
X151946Y110407D01*
X152351Y110569D01*
X152760Y110721D01*
X153173Y110863D01*
X153589Y110994D01*
X154008Y111116D01*
X154430Y111227D01*
X154854Y111328D01*
X155281Y111418D01*
X155710Y111498D01*
X156141Y111568D01*
X156574Y111626D01*
X157007Y111674D01*
X157442Y111712D01*
X157878Y111739D01*
X158314Y111755D01*
X158750Y111760D01*
X159186Y111755D01*
X159622Y111739D01*
X160058Y111712D01*
X160493Y111674D01*
X160926Y111626D01*
X161359Y111568D01*
X161790Y111498D01*
X162219Y111418D01*
X162646Y111328D01*
X163070Y111227D01*
X163492Y111116D01*
X163911Y110994D01*
X164327Y110863D01*
X164740Y110721D01*
X165149Y110569D01*
X165554Y110407D01*
X165955Y110235D01*
X166352Y110053D01*
X166744Y109862D01*
X167131Y109661D01*
X167514Y109450D01*
X167891Y109230D01*
X168262Y109001D01*
X168628Y108764D01*
X168988Y108517D01*
X169342Y108261D01*
X169689Y107997D01*
X170030Y107724D01*
X170363Y107443D01*
X170690Y107154D01*
X171010Y106857D01*
X171322Y106552D01*
X171627Y106240D01*
X171924Y105920D01*
X172213Y105593D01*
X172494Y105260D01*
X172767Y104919D01*
X173031Y104572D01*
X173287Y104218D01*
X173534Y103858D01*
X173771Y103492D01*
X174000Y103121D01*
X174220Y102744D01*
X174431Y102361D01*
X174632Y101974D01*
X174823Y101582D01*
X175005Y101185D01*
X175177Y100784D01*
X175339Y100379D01*
X175491Y99970D01*
X175633Y99557D01*
X175764Y99141D01*
X175886Y98722D01*
X175997Y98300D01*
X176098Y97876D01*
X176188Y97449D01*
X176268Y97020D01*
X176338Y96589D01*
X176396Y96156D01*
X176444Y95723D01*
X176482Y95288D01*
X176509Y94852D01*
X176525Y94416D01*
X176530Y93980D01*
X176525Y93544D01*
X176509Y93108D01*
X176482Y92672D01*
X176444Y92237D01*
X176396Y91804D01*
X176338Y91371D01*
X176268Y90940D01*
X176188Y90511D01*
X176098Y90084D01*
X175997Y89660D01*
X175886Y89238D01*
X175764Y88819D01*
X175633Y88403D01*
X175491Y87990D01*
X175339Y87581D01*
X175177Y87176D01*
X175005Y86775D01*
X174823Y86378D01*
X174632Y85986D01*
X174431Y85599D01*
X174220Y85216D01*
X174000Y84839D01*
X173771Y84468D01*
X173534Y84102D01*
X173287Y83742D01*
X173031Y83388D01*
X172767Y83041D01*
X172494Y82700D01*
X172213Y82367D01*
X171924Y82040D01*
X171627Y81720D01*
X171322Y81408D01*
X171010Y81103D01*
X170690Y80806D01*
X170363Y80517D01*
X170030Y80236D01*
X169689Y79963D01*
X169342Y79699D01*
X168988Y79443D01*
X168628Y79196D01*
X168262Y78959D01*
X167891Y78730D01*
X167514Y78510D01*
X167131Y78299D01*
X166744Y78098D01*
X166352Y77907D01*
X165955Y77725D01*
X165554Y77553D01*
X165149Y77391D01*
X164740Y77239D01*
X164327Y77097D01*
X163911Y76966D01*
X163492Y76844D01*
X163070Y76733D01*
X162646Y76632D01*
X162219Y76542D01*
X161790Y76462D01*
X161359Y76392D01*
X160926Y76334D01*
X160493Y76286D01*
X160058Y76248D01*
X159622Y76221D01*
X159186Y76205D01*
X158750Y76200D01*
X158314Y76205D01*
X157878Y76221D01*
X157442Y76248D01*
X157007Y76286D01*
X156574Y76334D01*
X156141Y76392D01*
X155710Y76462D01*
X155281Y76542D01*
X154854Y76632D01*
X154430Y76733D01*
X154008Y76844D01*
X153589Y76966D01*
X153173Y77097D01*
X152760Y77239D01*
X152351Y77391D01*
X151946Y77553D01*
X151545Y77725D01*
X151148Y77907D01*
X150756Y78098D01*
X150369Y78299D01*
X149986Y78510D01*
X149609Y78730D01*
X149238Y78959D01*
X148872Y79196D01*
X148512Y79443D01*
X148158Y79699D01*
X147811Y79963D01*
X147470Y80236D01*
X147137Y80517D01*
X146810Y80806D01*
X146490Y81103D01*
X146178Y81408D01*
X145873Y81720D01*
X145576Y82040D01*
X145287Y82367D01*
X145006Y82700D01*
X144733Y83041D01*
X144469Y83388D01*
X144213Y83742D01*
X143966Y84102D01*
X143729Y84468D01*
X143500Y84839D01*
X143280Y85216D01*
X143069Y85599D01*
X142868Y85986D01*
X142677Y86378D01*
X142495Y86775D01*
X142323Y87176D01*
X142161Y87581D01*
X142009Y87990D01*
X141867Y88403D01*
X141736Y88819D01*
X141614Y89238D01*
X141503Y89660D01*
X141402Y90084D01*
X141312Y90511D01*
X141232Y90940D01*
X141162Y91371D01*
X141104Y91804D01*
X141056Y92237D01*
X141018Y92672D01*
X140991Y93108D01*
X140975Y93544D01*
X140970Y93980D01*
X156210Y93980D02*
X156212Y94080D01*
X156218Y94181D01*
X156228Y94280D01*
X156242Y94380D01*
X156259Y94479D01*
X156281Y94577D01*
X156307Y94674D01*
X156336Y94770D01*
X156369Y94864D01*
X156406Y94958D01*
X156446Y95050D01*
X156490Y95140D01*
X156538Y95228D01*
X156589Y95315D01*
X156643Y95399D01*
X156701Y95481D01*
X156762Y95561D01*
X156826Y95638D01*
X156893Y95713D01*
X156963Y95785D01*
X157036Y95854D01*
X157111Y95920D01*
X157189Y95984D01*
X157269Y96044D01*
X157352Y96101D01*
X157437Y96154D01*
X157524Y96204D01*
X157613Y96251D01*
X157703Y96294D01*
X157795Y96334D01*
X157889Y96370D01*
X157984Y96402D01*
X158080Y96430D01*
X158178Y96455D01*
X158276Y96475D01*
X158375Y96492D01*
X158475Y96505D01*
X158574Y96514D01*
X158675Y96519D01*
X158775Y96520D01*
X158875Y96517D01*
X158976Y96510D01*
X159075Y96499D01*
X159175Y96484D01*
X159273Y96466D01*
X159371Y96443D01*
X159468Y96416D01*
X159563Y96386D01*
X159658Y96352D01*
X159751Y96314D01*
X159842Y96273D01*
X159932Y96228D01*
X160020Y96180D01*
X160106Y96128D01*
X160190Y96073D01*
X160271Y96014D01*
X160350Y95952D01*
X160427Y95888D01*
X160501Y95820D01*
X160572Y95749D01*
X160641Y95676D01*
X160706Y95600D01*
X160769Y95521D01*
X160828Y95440D01*
X160884Y95357D01*
X160937Y95272D01*
X160986Y95184D01*
X161032Y95095D01*
X161074Y95004D01*
X161113Y94911D01*
X161148Y94817D01*
X161179Y94722D01*
X161207Y94625D01*
X161230Y94528D01*
X161250Y94429D01*
X161266Y94330D01*
X161278Y94231D01*
X161286Y94130D01*
X161290Y94030D01*
X161290Y93930D01*
X161286Y93830D01*
X161278Y93729D01*
X161266Y93630D01*
X161250Y93531D01*
X161230Y93432D01*
X161207Y93335D01*
X161179Y93238D01*
X161148Y93143D01*
X161113Y93049D01*
X161074Y92956D01*
X161032Y92865D01*
X160986Y92776D01*
X160937Y92688D01*
X160884Y92603D01*
X160828Y92520D01*
X160769Y92439D01*
X160706Y92360D01*
X160641Y92284D01*
X160572Y92211D01*
X160501Y92140D01*
X160427Y92072D01*
X160350Y92008D01*
X160271Y91946D01*
X160190Y91887D01*
X160106Y91832D01*
X160020Y91780D01*
X159932Y91732D01*
X159842Y91687D01*
X159751Y91646D01*
X159658Y91608D01*
X159563Y91574D01*
X159468Y91544D01*
X159371Y91517D01*
X159273Y91494D01*
X159175Y91476D01*
X159075Y91461D01*
X158976Y91450D01*
X158875Y91443D01*
X158775Y91440D01*
X158675Y91441D01*
X158574Y91446D01*
X158475Y91455D01*
X158375Y91468D01*
X158276Y91485D01*
X158178Y91505D01*
X158080Y91530D01*
X157984Y91558D01*
X157889Y91590D01*
X157795Y91626D01*
X157703Y91666D01*
X157613Y91709D01*
X157524Y91756D01*
X157437Y91806D01*
X157352Y91859D01*
X157269Y91916D01*
X157189Y91976D01*
X157111Y92040D01*
X157036Y92106D01*
X156963Y92175D01*
X156893Y92247D01*
X156826Y92322D01*
X156762Y92399D01*
X156701Y92479D01*
X156643Y92561D01*
X156589Y92645D01*
X156538Y92732D01*
X156490Y92820D01*
X156446Y92910D01*
X156406Y93002D01*
X156369Y93096D01*
X156336Y93190D01*
X156307Y93286D01*
X156281Y93383D01*
X156259Y93481D01*
X156242Y93580D01*
X156228Y93680D01*
X156218Y93779D01*
X156212Y93880D01*
X156210Y93980D01*
X226640Y387400D02*
X72040Y387400D01*
X226640Y387400D02*
X226640Y182800D01*
X72040Y182800D01*
X72040Y387400D01*
M02*
