G04 EAGLE Gerber RS-274X export*
G75*
%MOMM*%
%FSLAX34Y34*%
%LPD*%
%INSilkscreen Bottom*%
%IPPOS*%
%AMOC8*
5,1,8,0,0,1.08239X$1,22.5*%
G01*
G04 Define Apertures*
%ADD10C,0.127000*%
%ADD11C,0.120000*%
G36*
X131995Y270654D02*
X132438Y270690D01*
X132865Y270751D01*
X133276Y270836D01*
X133672Y270945D01*
X134052Y271078D01*
X134416Y271235D01*
X134764Y271417D01*
X135095Y271621D01*
X135405Y271846D01*
X135694Y272092D01*
X135964Y272359D01*
X136213Y272646D01*
X136442Y272954D01*
X136651Y273283D01*
X136840Y273633D01*
X137007Y274001D01*
X137152Y274386D01*
X137275Y274788D01*
X137375Y275206D01*
X137453Y275641D01*
X137509Y276092D01*
X137543Y276560D01*
X137554Y277044D01*
X137548Y277408D01*
X137529Y277762D01*
X137498Y278106D01*
X137454Y278440D01*
X137398Y278764D01*
X137330Y279078D01*
X137249Y279382D01*
X137155Y279676D01*
X137049Y279960D01*
X136931Y280234D01*
X136657Y280752D01*
X136333Y281231D01*
X135960Y281669D01*
X135542Y282061D01*
X135086Y282401D01*
X134844Y282551D01*
X134592Y282688D01*
X134330Y282812D01*
X134059Y282923D01*
X133778Y283022D01*
X133488Y283106D01*
X133188Y283178D01*
X132879Y283237D01*
X132560Y283283D01*
X132231Y283316D01*
X131893Y283335D01*
X131545Y283342D01*
X131063Y283330D01*
X130601Y283294D01*
X130159Y283233D01*
X129737Y283149D01*
X129335Y283041D01*
X128954Y282908D01*
X128593Y282752D01*
X128252Y282571D01*
X127932Y282367D01*
X127635Y282139D01*
X127359Y281888D01*
X127105Y281614D01*
X126873Y281317D01*
X126662Y280996D01*
X126474Y280652D01*
X126308Y280285D01*
X127893Y279759D01*
X128008Y280021D01*
X128140Y280266D01*
X128288Y280496D01*
X128453Y280710D01*
X128633Y280908D01*
X128830Y281090D01*
X129043Y281256D01*
X129273Y281406D01*
X129516Y281540D01*
X129770Y281655D01*
X130035Y281753D01*
X130312Y281833D01*
X130599Y281895D01*
X130898Y281940D01*
X131207Y281966D01*
X131528Y281975D01*
X132026Y281955D01*
X132496Y281893D01*
X132937Y281790D01*
X133350Y281646D01*
X133734Y281460D01*
X134090Y281234D01*
X134417Y280966D01*
X134716Y280657D01*
X134983Y280312D01*
X135214Y279937D01*
X135410Y279531D01*
X135570Y279095D01*
X135694Y278628D01*
X135783Y278131D01*
X135837Y277603D01*
X135855Y277044D01*
X135836Y276491D01*
X135780Y275966D01*
X135688Y275468D01*
X135558Y274998D01*
X135391Y274556D01*
X135187Y274142D01*
X134946Y273755D01*
X134668Y273396D01*
X134358Y273073D01*
X134022Y272793D01*
X133660Y272556D01*
X133272Y272362D01*
X132858Y272211D01*
X132417Y272103D01*
X131951Y272038D01*
X131458Y272017D01*
X131139Y272027D01*
X130830Y272057D01*
X130531Y272107D01*
X130242Y272177D01*
X129963Y272268D01*
X129694Y272378D01*
X129436Y272508D01*
X129187Y272658D01*
X128949Y272829D01*
X128720Y273019D01*
X128502Y273230D01*
X128293Y273460D01*
X128095Y273711D01*
X127907Y273982D01*
X127728Y274272D01*
X127560Y274583D01*
X126194Y273900D01*
X126394Y273513D01*
X126613Y273151D01*
X126852Y272812D01*
X127110Y272496D01*
X127388Y272205D01*
X127684Y271938D01*
X128000Y271694D01*
X128335Y271474D01*
X128687Y271279D01*
X129053Y271110D01*
X129432Y270967D01*
X129825Y270850D01*
X130232Y270759D01*
X130653Y270694D01*
X131088Y270655D01*
X131537Y270642D01*
X131995Y270654D01*
G37*
G36*
X124161Y272157D02*
X121016Y272157D01*
X121016Y281651D01*
X123802Y279663D01*
X123802Y281152D01*
X120885Y283158D01*
X119431Y283158D01*
X119431Y272157D01*
X116427Y272157D01*
X116427Y270817D01*
X124161Y270817D01*
X124161Y272157D01*
G37*
G36*
X175808Y332353D02*
X176162Y332371D01*
X176506Y332402D01*
X176840Y332446D01*
X177164Y332502D01*
X177478Y332570D01*
X177782Y332651D01*
X178076Y332745D01*
X178360Y332851D01*
X178634Y332969D01*
X179152Y333243D01*
X179631Y333567D01*
X180069Y333940D01*
X180461Y334358D01*
X180801Y334814D01*
X180951Y335056D01*
X181088Y335308D01*
X181212Y335570D01*
X181323Y335841D01*
X181422Y336122D01*
X181506Y336412D01*
X181578Y336712D01*
X181637Y337021D01*
X181683Y337340D01*
X181716Y337669D01*
X181735Y338007D01*
X181742Y338355D01*
X181730Y338837D01*
X181694Y339299D01*
X181633Y339742D01*
X181549Y340163D01*
X181441Y340565D01*
X181308Y340946D01*
X181152Y341307D01*
X180971Y341648D01*
X180767Y341968D01*
X180539Y342265D01*
X180288Y342541D01*
X180014Y342795D01*
X179717Y343027D01*
X179396Y343238D01*
X179052Y343426D01*
X178685Y343592D01*
X178159Y342007D01*
X178421Y341892D01*
X178666Y341760D01*
X178896Y341612D01*
X179110Y341448D01*
X179308Y341267D01*
X179490Y341070D01*
X179656Y340857D01*
X179806Y340627D01*
X179940Y340384D01*
X180055Y340130D01*
X180153Y339865D01*
X180233Y339589D01*
X180295Y339301D01*
X180340Y339003D01*
X180366Y338693D01*
X180375Y338372D01*
X180355Y337874D01*
X180293Y337404D01*
X180190Y336963D01*
X180046Y336550D01*
X179860Y336166D01*
X179634Y335810D01*
X179366Y335483D01*
X179057Y335184D01*
X178712Y334917D01*
X178337Y334686D01*
X177931Y334490D01*
X177495Y334330D01*
X177028Y334206D01*
X176531Y334117D01*
X176003Y334063D01*
X175444Y334045D01*
X174891Y334064D01*
X174366Y334120D01*
X173868Y334212D01*
X173398Y334342D01*
X172956Y334509D01*
X172542Y334713D01*
X172155Y334954D01*
X171796Y335232D01*
X171473Y335542D01*
X171193Y335878D01*
X170956Y336240D01*
X170762Y336628D01*
X170611Y337042D01*
X170503Y337483D01*
X170438Y337950D01*
X170417Y338442D01*
X170427Y338761D01*
X170457Y339070D01*
X170507Y339369D01*
X170577Y339658D01*
X170668Y339937D01*
X170778Y340206D01*
X170908Y340464D01*
X171058Y340713D01*
X171229Y340951D01*
X171419Y341180D01*
X171630Y341398D01*
X171860Y341607D01*
X172111Y341805D01*
X172382Y341993D01*
X172672Y342172D01*
X172983Y342340D01*
X172300Y343706D01*
X171913Y343506D01*
X171551Y343287D01*
X171212Y343048D01*
X170896Y342790D01*
X170605Y342512D01*
X170338Y342216D01*
X170094Y341900D01*
X169874Y341565D01*
X169679Y341213D01*
X169510Y340847D01*
X169367Y340468D01*
X169250Y340075D01*
X169159Y339668D01*
X169094Y339247D01*
X169055Y338812D01*
X169042Y338363D01*
X169054Y337905D01*
X169090Y337462D01*
X169151Y337035D01*
X169236Y336624D01*
X169345Y336228D01*
X169478Y335848D01*
X169635Y335484D01*
X169817Y335136D01*
X170021Y334806D01*
X170246Y334495D01*
X170492Y334206D01*
X170759Y333936D01*
X171046Y333687D01*
X171354Y333458D01*
X171683Y333249D01*
X172033Y333060D01*
X172401Y332893D01*
X172786Y332748D01*
X173188Y332625D01*
X173606Y332525D01*
X174041Y332447D01*
X174492Y332391D01*
X174960Y332357D01*
X175444Y332346D01*
X175808Y332353D01*
G37*
G36*
X170827Y345511D02*
X171294Y345771D01*
X171731Y346056D01*
X172138Y346365D01*
X172521Y346691D01*
X172885Y347026D01*
X173230Y347368D01*
X173557Y347719D01*
X174169Y348425D01*
X174735Y349124D01*
X175278Y349787D01*
X175821Y350381D01*
X176096Y350648D01*
X176377Y350888D01*
X176665Y351101D01*
X176960Y351288D01*
X177267Y351439D01*
X177595Y351547D01*
X177942Y351612D01*
X178308Y351634D01*
X178555Y351624D01*
X178788Y351597D01*
X179006Y351550D01*
X179210Y351485D01*
X179400Y351401D01*
X179576Y351299D01*
X179738Y351178D01*
X179885Y351038D01*
X180016Y350882D01*
X180130Y350711D01*
X180226Y350526D01*
X180305Y350327D01*
X180367Y350112D01*
X180410Y349884D01*
X180437Y349640D01*
X180445Y349383D01*
X180437Y349137D01*
X180411Y348901D01*
X180368Y348677D01*
X180309Y348464D01*
X180232Y348262D01*
X180138Y348071D01*
X180026Y347892D01*
X179898Y347723D01*
X179754Y347568D01*
X179597Y347430D01*
X179425Y347309D01*
X179240Y347205D01*
X179041Y347118D01*
X178828Y347047D01*
X178601Y346994D01*
X178361Y346957D01*
X178510Y345345D01*
X178870Y345403D01*
X179212Y345489D01*
X179535Y345604D01*
X179839Y345747D01*
X180124Y345918D01*
X180390Y346118D01*
X180637Y346346D01*
X180866Y346602D01*
X181071Y346882D01*
X181249Y347181D01*
X181400Y347500D01*
X181523Y347838D01*
X181619Y348195D01*
X181687Y348572D01*
X181728Y348968D01*
X181742Y349383D01*
X181728Y349836D01*
X181687Y350262D01*
X181618Y350661D01*
X181522Y351033D01*
X181398Y351378D01*
X181247Y351696D01*
X181068Y351987D01*
X180861Y352251D01*
X180630Y352486D01*
X180375Y352690D01*
X180097Y352862D01*
X179796Y353003D01*
X179472Y353113D01*
X179125Y353191D01*
X178754Y353238D01*
X178361Y353254D01*
X178002Y353234D01*
X177645Y353172D01*
X177289Y353069D01*
X176933Y352926D01*
X176579Y352741D01*
X176224Y352517D01*
X175869Y352253D01*
X175514Y351949D01*
X175111Y351551D01*
X174610Y351005D01*
X174012Y350312D01*
X173316Y349470D01*
X172914Y348992D01*
X172533Y348566D01*
X172172Y348191D01*
X171831Y347868D01*
X171504Y347591D01*
X171182Y347355D01*
X170867Y347161D01*
X170557Y347009D01*
X170557Y353447D01*
X169217Y353447D01*
X169217Y345275D01*
X170329Y345275D01*
X170827Y345511D01*
G37*
G36*
X131995Y338087D02*
X132438Y338123D01*
X132865Y338184D01*
X133276Y338269D01*
X133672Y338378D01*
X134052Y338511D01*
X134416Y338668D01*
X134764Y338850D01*
X135095Y339054D01*
X135405Y339279D01*
X135694Y339525D01*
X135964Y339792D01*
X136213Y340079D01*
X136442Y340387D01*
X136651Y340716D01*
X136840Y341066D01*
X137007Y341434D01*
X137152Y341819D01*
X137275Y342221D01*
X137375Y342639D01*
X137453Y343074D01*
X137509Y343525D01*
X137543Y343993D01*
X137554Y344477D01*
X137548Y344841D01*
X137529Y345195D01*
X137498Y345539D01*
X137454Y345873D01*
X137398Y346197D01*
X137330Y346511D01*
X137249Y346815D01*
X137155Y347109D01*
X137049Y347393D01*
X136931Y347667D01*
X136657Y348185D01*
X136333Y348664D01*
X135960Y349102D01*
X135542Y349494D01*
X135086Y349834D01*
X134844Y349984D01*
X134592Y350121D01*
X134330Y350245D01*
X134059Y350356D01*
X133778Y350455D01*
X133488Y350539D01*
X133188Y350611D01*
X132879Y350670D01*
X132560Y350716D01*
X132231Y350749D01*
X131893Y350768D01*
X131545Y350775D01*
X131063Y350763D01*
X130601Y350727D01*
X130159Y350666D01*
X129737Y350582D01*
X129335Y350474D01*
X128954Y350341D01*
X128593Y350185D01*
X128252Y350004D01*
X127932Y349800D01*
X127635Y349572D01*
X127359Y349321D01*
X127105Y349047D01*
X126873Y348750D01*
X126662Y348429D01*
X126474Y348085D01*
X126308Y347718D01*
X127893Y347192D01*
X128008Y347454D01*
X128140Y347699D01*
X128288Y347929D01*
X128453Y348143D01*
X128633Y348341D01*
X128830Y348523D01*
X129043Y348689D01*
X129273Y348839D01*
X129516Y348973D01*
X129770Y349088D01*
X130035Y349186D01*
X130312Y349266D01*
X130599Y349328D01*
X130898Y349373D01*
X131207Y349399D01*
X131528Y349408D01*
X132026Y349388D01*
X132496Y349326D01*
X132937Y349223D01*
X133350Y349079D01*
X133734Y348893D01*
X134090Y348667D01*
X134417Y348399D01*
X134716Y348090D01*
X134983Y347745D01*
X135214Y347370D01*
X135410Y346964D01*
X135570Y346528D01*
X135694Y346061D01*
X135783Y345564D01*
X135837Y345036D01*
X135855Y344477D01*
X135836Y343924D01*
X135780Y343399D01*
X135688Y342901D01*
X135558Y342431D01*
X135391Y341989D01*
X135187Y341575D01*
X134946Y341188D01*
X134668Y340829D01*
X134358Y340506D01*
X134022Y340226D01*
X133660Y339989D01*
X133272Y339795D01*
X132858Y339644D01*
X132417Y339536D01*
X131951Y339471D01*
X131458Y339450D01*
X131139Y339460D01*
X130830Y339490D01*
X130531Y339540D01*
X130242Y339610D01*
X129963Y339701D01*
X129694Y339811D01*
X129436Y339941D01*
X129187Y340091D01*
X128949Y340262D01*
X128720Y340452D01*
X128502Y340663D01*
X128293Y340893D01*
X128095Y341144D01*
X127907Y341415D01*
X127728Y341705D01*
X127560Y342016D01*
X126194Y341333D01*
X126394Y340946D01*
X126613Y340584D01*
X126852Y340245D01*
X127110Y339929D01*
X127388Y339638D01*
X127684Y339371D01*
X128000Y339127D01*
X128335Y338907D01*
X128687Y338712D01*
X129053Y338543D01*
X129432Y338400D01*
X129825Y338283D01*
X130232Y338192D01*
X130653Y338127D01*
X131088Y338088D01*
X131537Y338075D01*
X131995Y338087D01*
G37*
G36*
X120983Y338088D02*
X121416Y338128D01*
X121825Y338194D01*
X122211Y338286D01*
X122573Y338405D01*
X122911Y338550D01*
X123226Y338722D01*
X123517Y338920D01*
X123782Y339144D01*
X124019Y339393D01*
X124227Y339668D01*
X124407Y339968D01*
X124559Y340293D01*
X124682Y340644D01*
X124777Y341019D01*
X124844Y341421D01*
X123215Y341569D01*
X123167Y341304D01*
X123104Y341056D01*
X123024Y340825D01*
X122929Y340612D01*
X122817Y340415D01*
X122689Y340235D01*
X122545Y340073D01*
X122385Y339927D01*
X122209Y339799D01*
X122017Y339688D01*
X121808Y339594D01*
X121584Y339517D01*
X121344Y339457D01*
X121087Y339414D01*
X120815Y339388D01*
X120526Y339380D01*
X120236Y339389D01*
X119962Y339417D01*
X119705Y339462D01*
X119463Y339527D01*
X119237Y339609D01*
X119027Y339710D01*
X118834Y339829D01*
X118656Y339967D01*
X118497Y340122D01*
X118359Y340296D01*
X118242Y340487D01*
X118147Y340696D01*
X118073Y340923D01*
X118020Y341167D01*
X117988Y341429D01*
X117977Y341710D01*
X117989Y341955D01*
X118026Y342186D01*
X118086Y342403D01*
X118171Y342606D01*
X118280Y342796D01*
X118413Y342972D01*
X118571Y343134D01*
X118752Y343282D01*
X118957Y343414D01*
X119183Y343529D01*
X119430Y343626D01*
X119699Y343705D01*
X119990Y343767D01*
X120302Y343811D01*
X120635Y343838D01*
X120990Y343847D01*
X121884Y343847D01*
X121884Y345213D01*
X121025Y345213D01*
X120710Y345222D01*
X120414Y345248D01*
X120135Y345292D01*
X119875Y345354D01*
X119632Y345434D01*
X119408Y345531D01*
X119203Y345646D01*
X119015Y345778D01*
X118848Y345926D01*
X118703Y346088D01*
X118580Y346263D01*
X118480Y346451D01*
X118402Y346653D01*
X118346Y346869D01*
X118312Y347099D01*
X118301Y347341D01*
X118310Y347582D01*
X118338Y347810D01*
X118383Y348025D01*
X118447Y348227D01*
X118529Y348416D01*
X118629Y348592D01*
X118747Y348755D01*
X118884Y348905D01*
X119038Y349039D01*
X119210Y349156D01*
X119400Y349254D01*
X119607Y349335D01*
X119832Y349398D01*
X120075Y349443D01*
X120336Y349469D01*
X120614Y349478D01*
X120868Y349470D01*
X121110Y349445D01*
X121339Y349403D01*
X121556Y349345D01*
X121761Y349270D01*
X121953Y349178D01*
X122132Y349069D01*
X122300Y348944D01*
X122452Y348804D01*
X122588Y348650D01*
X122707Y348482D01*
X122809Y348300D01*
X122894Y348105D01*
X122962Y347896D01*
X123014Y347674D01*
X123048Y347438D01*
X124634Y347560D01*
X124576Y347929D01*
X124490Y348276D01*
X124375Y348603D01*
X124232Y348909D01*
X124061Y349194D01*
X123861Y349459D01*
X123633Y349702D01*
X123377Y349925D01*
X123097Y350124D01*
X122797Y350297D01*
X122479Y350443D01*
X122141Y350562D01*
X121784Y350655D01*
X121407Y350722D01*
X121011Y350761D01*
X120596Y350775D01*
X120145Y350761D01*
X119719Y350721D01*
X119320Y350653D01*
X118946Y350559D01*
X118598Y350438D01*
X118276Y350289D01*
X117980Y350114D01*
X117710Y349912D01*
X117469Y349686D01*
X117260Y349438D01*
X117083Y349170D01*
X116938Y348880D01*
X116826Y348568D01*
X116745Y348236D01*
X116697Y347883D01*
X116681Y347508D01*
X116691Y347219D01*
X116722Y346944D01*
X116774Y346683D01*
X116846Y346436D01*
X116939Y346203D01*
X117053Y345983D01*
X117187Y345777D01*
X117342Y345585D01*
X117517Y345408D01*
X117710Y345245D01*
X117923Y345097D01*
X118154Y344965D01*
X118403Y344847D01*
X118672Y344744D01*
X118959Y344656D01*
X119265Y344582D01*
X119265Y344547D01*
X118928Y344500D01*
X118611Y344434D01*
X118313Y344347D01*
X118034Y344241D01*
X117774Y344115D01*
X117534Y343969D01*
X117312Y343804D01*
X117110Y343619D01*
X116930Y343418D01*
X116773Y343204D01*
X116640Y342978D01*
X116532Y342739D01*
X116448Y342487D01*
X116388Y342223D01*
X116351Y341946D01*
X116339Y341657D01*
X116356Y341242D01*
X116407Y340851D01*
X116492Y340485D01*
X116611Y340142D01*
X116764Y339823D01*
X116950Y339529D01*
X117171Y339258D01*
X117425Y339012D01*
X117711Y338792D01*
X118027Y338602D01*
X118371Y338441D01*
X118744Y338309D01*
X119146Y338207D01*
X119577Y338133D01*
X120037Y338090D01*
X120526Y338075D01*
X120983Y338088D01*
G37*
G36*
X210891Y350434D02*
X210891Y352089D01*
X202588Y352089D01*
X202588Y353823D01*
X201344Y353823D01*
X201344Y352089D01*
X198550Y352089D01*
X198550Y350600D01*
X201344Y350600D01*
X201344Y344785D01*
X202570Y344785D01*
X210891Y350434D01*
G37*
%LPC*%
G36*
X202588Y350600D02*
X209113Y350600D01*
X208649Y350355D01*
X208071Y350013D01*
X203411Y346852D01*
X202763Y346379D01*
X202588Y346238D01*
X202588Y350600D01*
G37*
%LPD*%
G36*
X205141Y332353D02*
X205495Y332371D01*
X205839Y332402D01*
X206173Y332446D01*
X206497Y332502D01*
X206811Y332570D01*
X207115Y332651D01*
X207409Y332745D01*
X207693Y332851D01*
X207967Y332969D01*
X208485Y333243D01*
X208964Y333567D01*
X209402Y333940D01*
X209794Y334358D01*
X210134Y334814D01*
X210284Y335056D01*
X210421Y335308D01*
X210545Y335570D01*
X210656Y335841D01*
X210755Y336122D01*
X210839Y336412D01*
X210911Y336712D01*
X210970Y337021D01*
X211016Y337340D01*
X211049Y337669D01*
X211068Y338007D01*
X211075Y338355D01*
X211063Y338837D01*
X211027Y339299D01*
X210966Y339742D01*
X210882Y340163D01*
X210774Y340565D01*
X210641Y340946D01*
X210485Y341307D01*
X210304Y341648D01*
X210100Y341968D01*
X209872Y342265D01*
X209621Y342541D01*
X209347Y342795D01*
X209050Y343027D01*
X208729Y343238D01*
X208385Y343426D01*
X208018Y343592D01*
X207492Y342007D01*
X207754Y341892D01*
X207999Y341760D01*
X208229Y341612D01*
X208443Y341448D01*
X208641Y341267D01*
X208823Y341070D01*
X208989Y340857D01*
X209139Y340627D01*
X209273Y340384D01*
X209388Y340130D01*
X209486Y339865D01*
X209566Y339589D01*
X209628Y339301D01*
X209673Y339003D01*
X209699Y338693D01*
X209708Y338372D01*
X209688Y337874D01*
X209626Y337404D01*
X209523Y336963D01*
X209379Y336550D01*
X209193Y336166D01*
X208967Y335810D01*
X208699Y335483D01*
X208390Y335184D01*
X208045Y334917D01*
X207670Y334686D01*
X207264Y334490D01*
X206828Y334330D01*
X206361Y334206D01*
X205864Y334117D01*
X205336Y334063D01*
X204777Y334045D01*
X204224Y334064D01*
X203699Y334120D01*
X203201Y334212D01*
X202731Y334342D01*
X202289Y334509D01*
X201875Y334713D01*
X201488Y334954D01*
X201129Y335232D01*
X200806Y335542D01*
X200526Y335878D01*
X200289Y336240D01*
X200095Y336628D01*
X199944Y337042D01*
X199836Y337483D01*
X199771Y337950D01*
X199750Y338442D01*
X199760Y338761D01*
X199790Y339070D01*
X199840Y339369D01*
X199910Y339658D01*
X200001Y339937D01*
X200111Y340206D01*
X200241Y340464D01*
X200391Y340713D01*
X200562Y340951D01*
X200752Y341180D01*
X200963Y341398D01*
X201193Y341607D01*
X201444Y341805D01*
X201715Y341993D01*
X202005Y342172D01*
X202316Y342340D01*
X201633Y343706D01*
X201246Y343506D01*
X200884Y343287D01*
X200545Y343048D01*
X200229Y342790D01*
X199938Y342512D01*
X199671Y342216D01*
X199427Y341900D01*
X199207Y341565D01*
X199012Y341213D01*
X198843Y340847D01*
X198700Y340468D01*
X198583Y340075D01*
X198492Y339668D01*
X198427Y339247D01*
X198388Y338812D01*
X198375Y338363D01*
X198387Y337905D01*
X198423Y337462D01*
X198484Y337035D01*
X198569Y336624D01*
X198678Y336228D01*
X198811Y335848D01*
X198968Y335484D01*
X199150Y335136D01*
X199354Y334806D01*
X199579Y334495D01*
X199825Y334206D01*
X200092Y333936D01*
X200379Y333687D01*
X200687Y333458D01*
X201016Y333249D01*
X201366Y333060D01*
X201734Y332893D01*
X202119Y332748D01*
X202521Y332625D01*
X202939Y332525D01*
X203374Y332447D01*
X203825Y332391D01*
X204293Y332357D01*
X204777Y332346D01*
X205141Y332353D01*
G37*
G36*
X131475Y250315D02*
X135320Y250315D01*
X135320Y245191D01*
X136993Y245191D01*
X136993Y257532D01*
X131186Y257532D01*
X130680Y257517D01*
X130203Y257473D01*
X129757Y257401D01*
X129339Y257299D01*
X128952Y257167D01*
X128594Y257007D01*
X128266Y256818D01*
X127968Y256599D01*
X127702Y256354D01*
X127471Y256087D01*
X127276Y255797D01*
X127117Y255483D01*
X126993Y255147D01*
X126904Y254788D01*
X126851Y254407D01*
X126833Y254002D01*
X126846Y253665D01*
X126883Y253342D01*
X126946Y253032D01*
X127034Y252736D01*
X127146Y252454D01*
X127284Y252186D01*
X127447Y251931D01*
X127635Y251690D01*
X127845Y251466D01*
X128073Y251265D01*
X128321Y251084D01*
X128432Y251018D01*
X128588Y250926D01*
X128874Y250789D01*
X129179Y250673D01*
X129503Y250580D01*
X129846Y250507D01*
X128355Y248244D01*
X126343Y245191D01*
X128270Y245191D01*
X131475Y250315D01*
G37*
%LPC*%
G36*
X131283Y251637D02*
X130961Y251647D01*
X130659Y251676D01*
X130375Y251724D01*
X130110Y251792D01*
X129864Y251878D01*
X129636Y251985D01*
X129428Y252110D01*
X129237Y252255D01*
X129068Y252417D01*
X128921Y252594D01*
X128797Y252787D01*
X128696Y252996D01*
X128617Y253220D01*
X128560Y253459D01*
X128526Y253714D01*
X128515Y253985D01*
X128526Y254246D01*
X128561Y254491D01*
X128618Y254721D01*
X128698Y254934D01*
X128801Y255131D01*
X128926Y255312D01*
X129075Y255478D01*
X129246Y255627D01*
X129439Y255759D01*
X129652Y255874D01*
X129885Y255971D01*
X130139Y256051D01*
X130412Y256112D01*
X130705Y256156D01*
X131019Y256183D01*
X131353Y256192D01*
X135320Y256192D01*
X135320Y251637D01*
X131283Y251637D01*
G37*
%LPD*%
G36*
X124161Y246531D02*
X121016Y246531D01*
X121016Y256025D01*
X123802Y254037D01*
X123802Y255526D01*
X120885Y257532D01*
X119431Y257532D01*
X119431Y246531D01*
X116427Y246531D01*
X116427Y245191D01*
X124161Y245191D01*
X124161Y246531D01*
G37*
G36*
X219432Y338714D02*
X219417Y339220D01*
X219373Y339697D01*
X219301Y340144D01*
X219199Y340561D01*
X219067Y340948D01*
X218907Y341306D01*
X218718Y341634D01*
X218499Y341933D01*
X218254Y342198D01*
X217987Y342429D01*
X217697Y342624D01*
X217383Y342783D01*
X217047Y342907D01*
X216688Y342996D01*
X216307Y343049D01*
X215902Y343067D01*
X215565Y343054D01*
X215242Y343017D01*
X214932Y342954D01*
X214636Y342866D01*
X214354Y342754D01*
X214086Y342616D01*
X213831Y342453D01*
X213590Y342265D01*
X213366Y342055D01*
X213165Y341827D01*
X212984Y341579D01*
X212918Y341468D01*
X212826Y341312D01*
X212689Y341026D01*
X212573Y340721D01*
X212480Y340397D01*
X212407Y340054D01*
X210144Y341545D01*
X207091Y343557D01*
X207091Y341630D01*
X212215Y338425D01*
X212215Y334580D01*
X207091Y334580D01*
X207091Y332907D01*
X219432Y332907D01*
X219432Y338714D01*
G37*
%LPC*%
G36*
X213537Y334580D02*
X213537Y338617D01*
X213547Y338939D01*
X213576Y339241D01*
X213624Y339525D01*
X213692Y339790D01*
X213778Y340036D01*
X213885Y340264D01*
X214010Y340473D01*
X214155Y340663D01*
X214317Y340832D01*
X214494Y340979D01*
X214687Y341103D01*
X214896Y341204D01*
X215120Y341284D01*
X215359Y341340D01*
X215614Y341374D01*
X215885Y341385D01*
X216146Y341374D01*
X216391Y341339D01*
X216621Y341282D01*
X216834Y341202D01*
X217031Y341099D01*
X217212Y340974D01*
X217378Y340825D01*
X217527Y340654D01*
X217659Y340461D01*
X217774Y340248D01*
X217871Y340015D01*
X217951Y339761D01*
X218012Y339488D01*
X218056Y339195D01*
X218083Y338881D01*
X218092Y338547D01*
X218092Y334580D01*
X213537Y334580D01*
G37*
%LPD*%
G36*
X208701Y345511D02*
X209168Y345771D01*
X209605Y346056D01*
X210012Y346365D01*
X210395Y346691D01*
X210759Y347026D01*
X211104Y347368D01*
X211431Y347719D01*
X212043Y348425D01*
X212609Y349124D01*
X213152Y349787D01*
X213695Y350381D01*
X213970Y350648D01*
X214251Y350888D01*
X214539Y351101D01*
X214834Y351288D01*
X215141Y351439D01*
X215469Y351547D01*
X215816Y351612D01*
X216182Y351634D01*
X216429Y351624D01*
X216662Y351597D01*
X216880Y351550D01*
X217084Y351485D01*
X217274Y351401D01*
X217450Y351299D01*
X217612Y351178D01*
X217759Y351038D01*
X217890Y350882D01*
X218004Y350711D01*
X218100Y350526D01*
X218179Y350327D01*
X218241Y350112D01*
X218284Y349884D01*
X218311Y349640D01*
X218319Y349383D01*
X218311Y349137D01*
X218285Y348901D01*
X218242Y348677D01*
X218183Y348464D01*
X218106Y348262D01*
X218012Y348071D01*
X217900Y347892D01*
X217772Y347723D01*
X217628Y347568D01*
X217471Y347430D01*
X217299Y347309D01*
X217114Y347205D01*
X216915Y347118D01*
X216702Y347047D01*
X216475Y346994D01*
X216235Y346957D01*
X216384Y345345D01*
X216744Y345403D01*
X217086Y345489D01*
X217409Y345604D01*
X217713Y345747D01*
X217998Y345918D01*
X218264Y346118D01*
X218511Y346346D01*
X218740Y346602D01*
X218945Y346882D01*
X219123Y347181D01*
X219274Y347500D01*
X219397Y347838D01*
X219493Y348195D01*
X219561Y348572D01*
X219602Y348968D01*
X219616Y349383D01*
X219602Y349836D01*
X219561Y350262D01*
X219492Y350661D01*
X219396Y351033D01*
X219272Y351378D01*
X219121Y351696D01*
X218942Y351987D01*
X218735Y352251D01*
X218504Y352486D01*
X218249Y352690D01*
X217971Y352862D01*
X217670Y353003D01*
X217346Y353113D01*
X216999Y353191D01*
X216628Y353238D01*
X216235Y353254D01*
X215876Y353234D01*
X215519Y353172D01*
X215163Y353069D01*
X214807Y352926D01*
X214453Y352741D01*
X214098Y352517D01*
X213743Y352253D01*
X213388Y351949D01*
X212985Y351551D01*
X212484Y351005D01*
X211886Y350312D01*
X211190Y349470D01*
X210788Y348992D01*
X210407Y348566D01*
X210046Y348191D01*
X209705Y347868D01*
X209378Y347591D01*
X209056Y347355D01*
X208741Y347161D01*
X208431Y347009D01*
X208431Y353447D01*
X207091Y353447D01*
X207091Y345275D01*
X208203Y345275D01*
X208701Y345511D01*
G37*
D10*
X116000Y264467D02*
X138000Y264467D01*
X138000Y243533D02*
X116000Y243533D01*
X175567Y331900D02*
X175567Y353900D01*
X154633Y353900D02*
X154633Y331900D01*
D11*
X152217Y288484D02*
X110000Y288484D01*
X152217Y288484D02*
X152217Y270316D01*
X110000Y270316D01*
X148784Y317683D02*
X148784Y359900D01*
X148784Y317683D02*
X130616Y317683D01*
X130616Y359900D01*
D10*
X137750Y238841D02*
X116250Y238841D01*
X116250Y218359D02*
X137750Y218359D01*
X200741Y332150D02*
X200741Y353650D01*
X180259Y353650D02*
X180259Y332150D01*
M02*
