M48
;GenerationSoftware,Autodesk,EAGLE,9.7.0*%
;CreationDate,2022-07-10T19:24:11Z*%
FMAT,2
ICI,OFF
METRIC,TZ,000.000
T3C0.600
T2C1.016
T1C1.524
%
G90
M71
T1
X26670Y25400
X24130Y3810
T2
X26650Y29952
X26650Y32492
X24130Y7620
X24130Y10160
X24130Y12700
X9881Y12700
X5359Y12700
X9881Y6198
X5359Y6198
X18136Y12649
X13614Y12649
X18136Y6147
X13614Y6147
T3
X7204Y38740
X7204Y36200
X7204Y33660
X7204Y31120
X7204Y28580
X7204Y26040
X7204Y23500
X7204Y20960
X7204Y18420
X9744Y18420
X12284Y18420
X14824Y18420
X17364Y18420
X19904Y18420
X22444Y18420
X22444Y20960
X22444Y23500
X22444Y26040
X22444Y28580
X22444Y31120
X22444Y33660
X22444Y36200
X22444Y38740
M30